<svg id="Speed" xmlns="http://www.w3.org/2000/svg" viewBox="0 0 1644.16 742.57"><defs><style>.cls-1{fill:#878787;}.cls-2{fill:#fff;}</style></defs><title>speed-icon</title><g id="Speed-2" data-name="Speed"><path class="cls-1" d="M2570.85,2230c-.17-389.25-315.77-704.75-705.07-704.75s-704.9,315.5-705.07,704.75Z" transform="translate(-1043.7 -1525.25)"/><rect class="cls-1" y="667.57" width="1644.16" height="75.01"/><circle class="cls-2" cx="334.03" cy="559.56" r="37.5"/><circle class="cls-2" cx="483.52" cy="333.87" r="37.5"/><circle class="cls-2" cx="709.03" cy="183.87" r="37.5"/><circle class="cls-2" cx="933.03" cy="183.87" r="37.5"/><circle class="cls-2" cx="1159.03" cy="333.87" r="37.5"/><circle class="cls-2" cx="1309.03" cy="558.37" r="37.5"/><path class="cls-2" d="M1865.78,2047.3c-107.71,0-195,65.41-195,145.7h390C2060.8,2112.71,1973.49,2047.3,1865.78,2047.3Z" transform="translate(-1043.7 -1525.25)"/><polygon class="cls-2" points="470.42 309.04 456.91 325.35 812.44 667.57 857.3 613.43 470.42 309.04"/></g></svg>