<svg xmlns="http://www.w3.org/2000/svg" viewBox="0 0 393.92 354.28"><defs><style>.cls-1{fill:#fff;stroke:#bab6b8;stroke-miterlimit:10;stroke-width:20px;}.cls-2{fill:#bab6b8;}.cls-3{fill:#396bcc;}.cls-4{fill:#cc3434;}</style></defs><title>battery-icon</title><g id="Слой_2" data-name="Слой 2"><g id="аккумулятор"><rect class="cls-1" x="58.75" y="37.64" width="279.33" height="165" rx="5"/><rect class="cls-2" x="83.92" width="98" height="38.28" rx="5"/><rect class="cls-2" x="213.92" width="98" height="38.28" rx="5"/><rect class="cls-3" x="102.92" y="94.64" width="60" height="14"/><rect class="cls-4" x="232.92" y="94.64" width="60" height="14"/><rect class="cls-4" x="436.87" y="94.64" width="60" height="14" transform="translate(161.28 568.51) rotate(-90)"/><path class="cls-2" d="M328,272.21h-5.51v-28H307.63v28h-5.51V239.49H328Z" transform="translate(-203.95)"/><path class="cls-2" d="M364.65,255.86q0,8.26-4,12.76a13.49,13.49,0,0,1-10.61,4.5q-6.82,0-10.74-4.64t-3.91-12.62q0-8.21,4-12.74a14.7,14.7,0,0,1,21.23,0Q364.65,247.63,364.65,255.86Zm-5.68,0c0-4.24-.78-7.38-2.32-9.45a7.74,7.74,0,0,0-6.59-3.09,7.83,7.83,0,0,0-6.64,3.09c-1.55,2.07-2.33,5.21-2.33,9.45s.78,7.21,2.33,9.33a8.51,8.51,0,0,0,13.22.06Q359,262.13,359,255.86Z" transform="translate(-203.95)"/><path class="cls-2" d="M400.17,280.06H395v-7.94H373.48v7.94h-5.13V267.52h2.17a41.61,41.61,0,0,0,4.56-11.94,68.79,68.79,0,0,0,1.77-16.09h20.07v28h3.25Zm-8.76-12.54V244.11H382a65.08,65.08,0,0,1-2,13.38,37.61,37.61,0,0,1-4.09,10Z" transform="translate(-203.95)"/><path class="cls-2" d="M430.59,244.32a13,13,0,0,1,3,4.91,20.42,20.42,0,0,1,1.06,6.9,19.71,19.71,0,0,1-1.2,7,16.25,16.25,0,0,1-3.26,5.41,14.38,14.38,0,0,1-4.67,3.44,13.43,13.43,0,0,1-5.58,1.16,14.57,14.57,0,0,1-5.64-1.07,11,11,0,0,1-4.38-3.3,18.59,18.59,0,0,1-3.38-7,40.61,40.61,0,0,1-1.13-10.37c0-1.47.06-2.95.19-4.47a48.52,48.52,0,0,1,.83-5.43,29.61,29.61,0,0,1,1.59-5.23,12.85,12.85,0,0,1,2.6-4.09,14.8,14.8,0,0,1,5.44-3.46,33.73,33.73,0,0,1,8.89-1.78c1.31-.12,2.71-.23,4.2-.34l3.42-.25v5.07c-1,.06-2.1.13-3.25.22l-4,.31a36.94,36.94,0,0,0-6.18,1,9.89,9.89,0,0,0-4.86,2.5,8.89,8.89,0,0,0-2,3.6,26.25,26.25,0,0,0-1,5.22,24.3,24.3,0,0,1,4.64-2.62,13.21,13.21,0,0,1,5.35-1.07,14.62,14.62,0,0,1,5.07.89A11.42,11.42,0,0,1,430.59,244.32ZM429,256.45c0-3.48-.78-6.14-2.34-8a8.27,8.27,0,0,0-6.68-2.78,13.57,13.57,0,0,0-4.6.79,18.71,18.71,0,0,0-4.19,2.11q-.06.74-.12,1.74c0,.67-.06,1.29-.06,1.83a34.63,34.63,0,0,0,.82,8.29,13.12,13.12,0,0,0,2.29,5,7.35,7.35,0,0,0,2.78,2.27,8,8,0,0,0,3.2.63,7.68,7.68,0,0,0,6.56-3.19Q429,262,429,256.45Z" transform="translate(-203.95)"/><path class="cls-2" d="M469.1,255.86q0,8.26-4,12.76a13.47,13.47,0,0,1-10.61,4.5q-6.83,0-10.73-4.64t-3.92-12.62q0-8.21,4-12.74a14.7,14.7,0,0,1,21.23,0Q469.1,247.63,469.1,255.86Zm-5.68,0c0-4.24-.77-7.38-2.32-9.45a8.61,8.61,0,0,0-13.22,0c-1.56,2.07-2.33,5.21-2.33,9.45s.77,7.21,2.33,9.33a8.5,8.5,0,0,0,13.21.06Q463.42,262.13,463.42,255.86Z" transform="translate(-203.95)"/><path class="cls-2" d="M504,255q0,8.18-3.91,13a12.19,12.19,0,0,1-9.89,4.84,15.24,15.24,0,0,1-4.31-.55,17,17,0,0,1-3.84-1.73v13.71h-5.5V239.49h5.5v3.42a20.34,20.34,0,0,1,4.56-3.09,12.09,12.09,0,0,1,5.46-1.24,10.15,10.15,0,0,1,8.78,4.45Q504,247.49,504,255Zm-5.69.62q0-5.59-1.78-8.69a6.19,6.19,0,0,0-5.8-3.09,10.46,10.46,0,0,0-4.53,1,20,20,0,0,0-4.15,2.68v18.55a19.69,19.69,0,0,0,3.71,1.43,14.47,14.47,0,0,0,3.53.38,7.86,7.86,0,0,0,6.65-3.13Q498.32,261.64,498.32,255.6Z" transform="translate(-203.95)"/><path class="cls-2" d="M224.52,338.72c-.45.34-1.06.8-1.81,1.4a13,13,0,0,1-2.18,1.42,16.84,16.84,0,0,1-2.83,1.17,14,14,0,0,1-3.82.41,9.59,9.59,0,0,1-9.14-6.23,12,12,0,0,1,.64-10,9.86,9.86,0,0,1,4.55-3.79,22.4,22.4,0,0,1,6.5-1.74q3.75-.5,8.09-.72v-1.06a7.08,7.08,0,0,0-.59-3.12,4.36,4.36,0,0,0-1.64-1.83,6.3,6.3,0,0,0-2.58-.89,19.54,19.54,0,0,0-7.62.35,30.45,30.45,0,0,0-5.15,1.65h-.32v-5.59c1-.29,2.47-.62,4.36-1a30.9,30.9,0,0,1,5.63-.53,26.11,26.11,0,0,1,5.68.53,10.91,10.91,0,0,1,4.16,1.91,8.18,8.18,0,0,1,2.67,3.48,13.9,13.9,0,0,1,.87,5.22v22.38h-5.47Zm0-4.57v-9.08c-1.31.12-3,.28-5,.49a26.52,26.52,0,0,0-4.85.86,8.9,8.9,0,0,0-3.63,2.06,5.17,5.17,0,0,0-1.44,3.89,5.44,5.44,0,0,0,1.58,4.24,6.67,6.67,0,0,0,4.63,1.44,9.89,9.89,0,0,0,4.72-1.13A20,20,0,0,0,224.52,334.15Z" transform="translate(-203.95)"/><path class="cls-2" d="M265.87,342.21H259l-11.22-15.09H245v15.09h-5.51V309.49H245v14.23a7.37,7.37,0,0,0,3.64-.89,6.71,6.71,0,0,0,2.57-3.35c.21-.49.45-1.06.71-1.7s.48-1.21.63-1.7a9.8,9.8,0,0,1,3.58-5.1,10.64,10.64,0,0,1,5.95-1.49h1.49v4.74h-1.26a5.4,5.4,0,0,0-3.47.95,7.37,7.37,0,0,0-1.95,3.48,13.1,13.1,0,0,1-1.93,4,8.75,8.75,0,0,1-2.46,2.18Z" transform="translate(-203.95)"/><path class="cls-2" d="M297.55,342.21h-6.86l-11.22-15.09h-2.75v15.09h-5.51V309.49h5.51v14.23a7.44,7.44,0,0,0,3.65-.89,6.7,6.7,0,0,0,2.56-3.35l.72-1.7c.26-.65.47-1.21.63-1.7a9.79,9.79,0,0,1,3.57-5.1,10.69,10.69,0,0,1,5.95-1.49h1.49v4.74H294a5.4,5.4,0,0,0-3.47.95,7.37,7.37,0,0,0-1.95,3.48,12.87,12.87,0,0,1-1.93,4,8.48,8.48,0,0,1-2.46,2.18Z" transform="translate(-203.95)"/><path class="cls-2" d="M328.62,309.49,311,354.28h-5.89L311,340.63l-11.9-31.14H305L314,333.71l8.9-24.22Z" transform="translate(-203.95)"/><path class="cls-2" d="M364.93,342.21h-5.45V316.49l-7.85,16.7h-4.1l-7.8-16.7v25.72h-5.15V309.49h6.65l8.61,18.16,8.32-18.16h6.77Z" transform="translate(-203.95)"/><path class="cls-2" d="M400.42,309.49l-17.61,44.79h-5.89l5.86-13.65-11.89-31.14h5.95l8.93,24.22,8.91-24.22Z" transform="translate(-203.95)"/><path class="cls-2" d="M431.72,342.21h-5.51v-28.1H415c0,1.63-.11,3.18-.17,4.68s-.12,2.84-.18,4.06c-.11,3.06-.32,5.63-.6,7.7a26.83,26.83,0,0,1-1.07,5,11.39,11.39,0,0,1-1.42,3,12.57,12.57,0,0,1-1.74,2,7,7,0,0,1-2.14,1.32,7.19,7.19,0,0,1-2.58.44l-1.2,0-1,0v-4.8h.3l.42,0,.52,0a4.59,4.59,0,0,0,1.37-.2,2.76,2.76,0,0,0,1.2-.76c1-1,1.69-2.63,2.14-5a76.78,76.78,0,0,0,1-10c.08-1.6.15-3.5.22-5.68s.13-4.28.19-6.27h21.56Z" transform="translate(-203.95)"/><path class="cls-2" d="M465.19,342.21h-5.51v-13h-5.45l-9.69,13h-6.42l10.52-13.48a11.51,11.51,0,0,1-6-3.57,9.91,9.91,0,0,1-1.89-6.36,8.22,8.22,0,0,1,1.07-4.26,9.63,9.63,0,0,1,2.88-3.09,10.37,10.37,0,0,1,3.69-1.48,23.78,23.78,0,0,1,5-.48h11.78Zm-5.51-17.31v-11h-6a16.94,16.94,0,0,0-3,.21,6.58,6.58,0,0,0-2.12.79,4.19,4.19,0,0,0-1.6,1.74,5.27,5.27,0,0,0-.54,2.36,7.67,7.67,0,0,0,.37,2.62,4.61,4.61,0,0,0,1.33,1.86,5.26,5.26,0,0,0,2.51,1.16,17.91,17.91,0,0,0,3.23.28Z" transform="translate(-203.95)"/><path class="cls-2" d="M498.87,314.32H487.73v27.89h-5.5V314.32H471.09v-4.83h27.78Z" transform="translate(-203.95)"/><path class="cls-2" d="M531.69,325.86q0,8.26-4,12.76a13.47,13.47,0,0,1-10.61,4.5q-6.83,0-10.73-4.64t-3.92-12.62q0-8.21,4-12.74a14.7,14.7,0,0,1,21.23,0Q531.68,317.63,531.69,325.86Zm-5.68,0c0-4.24-.77-7.38-2.32-9.45a8.61,8.61,0,0,0-13.22,0c-1.56,2.07-2.33,5.21-2.33,9.45s.77,7.21,2.33,9.33a8.5,8.5,0,0,0,13.21.06Q526,332.13,526,325.86Z" transform="translate(-203.95)"/><path class="cls-2" d="M566.6,325q0,8.17-3.91,13a12.19,12.19,0,0,1-9.89,4.84,15.24,15.24,0,0,1-4.31-.55,17,17,0,0,1-3.84-1.73v13.71h-5.5V309.49h5.5v3.42a20.34,20.34,0,0,1,4.56-3.09,12.09,12.09,0,0,1,5.46-1.24,10.15,10.15,0,0,1,8.78,4.45Q566.6,317.49,566.6,325Zm-5.69.62q0-5.6-1.78-8.69a6.19,6.19,0,0,0-5.8-3.09,10.43,10.43,0,0,0-4.53,1,20,20,0,0,0-4.15,2.68v18.55a19.44,19.44,0,0,0,3.71,1.43,14.47,14.47,0,0,0,3.53.38,7.86,7.86,0,0,0,6.65-3.13Q560.91,331.64,560.91,325.6Z" transform="translate(-203.95)"/><path class="cls-2" d="M592.39,338.72c-.45.34-1,.8-1.8,1.4a13,13,0,0,1-2.18,1.42,16.84,16.84,0,0,1-2.83,1.17,14,14,0,0,1-3.82.41,10,10,0,0,1-3.84-.76,9.78,9.78,0,0,1-3.19-2.14,9.88,9.88,0,0,1-2.11-3.33,12,12,0,0,1,.64-10,9.83,9.83,0,0,1,4.54-3.79,22.55,22.55,0,0,1,6.51-1.74q3.75-.5,8.08-.72v-1.06a7.09,7.09,0,0,0-.58-3.12,4.36,4.36,0,0,0-1.64-1.83,6.41,6.41,0,0,0-2.58-.89,21.5,21.5,0,0,0-3.14-.22,21.15,21.15,0,0,0-4.48.57,30.26,30.26,0,0,0-5.16,1.65h-.32v-5.59c1-.29,2.47-.62,4.37-1a30.88,30.88,0,0,1,5.62-.53,26.21,26.21,0,0,1,5.69.53,11,11,0,0,1,4.16,1.91,8.08,8.08,0,0,1,2.66,3.48,13.7,13.7,0,0,1,.88,5.22v22.38h-5.48Zm0-4.57v-9.08c-1.31.12-3,.28-5,.49a26.36,26.36,0,0,0-4.85.86,8.94,8.94,0,0,0-3.64,2.06,5.2,5.2,0,0,0-1.43,3.89,5.44,5.44,0,0,0,1.58,4.24,6.67,6.67,0,0,0,4.63,1.44,9.89,9.89,0,0,0,4.72-1.13A20.27,20.27,0,0,0,592.39,334.15Z" transform="translate(-203.95)"/></g></g></svg>