<svg xmlns="http://www.w3.org/2000/svg" viewBox="0 0 459.14 353.27"><defs><style>.cls-1{fill:#bab6b8;}</style></defs><title>carpet-icon</title><g id="Слой_2" data-name="Слой 2"><g id="Слой_6" data-name="Слой 6"><path class="cls-1" d="M461,35.56a5.22,5.22,0,1,0,0-10.44H446V10.44h15A5.22,5.22,0,1,0,461,0H203.73a5.22,5.22,0,1,0,0,10.44H435.54V226.09H140.74V10.44h41.38a5.22,5.22,0,0,0,0-10.44H115.26a5.22,5.22,0,0,0,0,10.44h15V25.12h-15a5.22,5.22,0,0,0,0,10.44h15V50.25h-15a5.22,5.22,0,0,0,0,10.43h15V75.37h-15a5.22,5.22,0,0,0,0,10.43h15v14.69h-15a5.22,5.22,0,0,0,0,10.43h15v14.69h-15a5.22,5.22,0,0,0,0,10.43h15v14.69h-15a5.22,5.22,0,0,0,0,10.44h15v14.68h-15a5.22,5.22,0,0,0,0,10.44h15V201h-15a5.22,5.22,0,0,0,0,10.44h15v14.68h-15a5.22,5.22,0,0,0,0,10.44H461a5.22,5.22,0,1,0,0-10.44H446V211.41h15A5.22,5.22,0,1,0,461,201H446V186.28h15a5.22,5.22,0,1,0,0-10.43H446V161.16h15a5.22,5.22,0,1,0,0-10.43H446V136h15a5.22,5.22,0,1,0,0-10.43H446V110.92h15a5.22,5.22,0,1,0,0-10.43H446V85.8h15a5.22,5.22,0,1,0,0-10.44H446V60.68h15a5.22,5.22,0,1,0,0-10.44H446V35.56Z" transform="translate(-58.98)"/><path class="cls-1" d="M347.38,118.26a28.7,28.7,0,0,0-28.19-28.48,32.35,32.35,0,0,0-62.1,0,28.49,28.49,0,0,0,0,57,32.35,32.35,0,0,0,62.1,0A28.7,28.7,0,0,0,347.38,118.26Zm-28.85,18.06a19.92,19.92,0,0,1-2.79-.2,5.22,5.22,0,0,0-6,4.55,21.84,21.84,0,0,1-43.29,0,5.21,5.21,0,0,0-5.18-4.61,5,5,0,0,0-.77.06,20,20,0,0,1-2.79.2,18.06,18.06,0,1,1,0-36.11,20,20,0,0,1,2.79.2,5.2,5.2,0,0,0,5.95-4.55,21.84,21.84,0,0,1,43.29,0,5.22,5.22,0,0,0,6,4.55,19.81,19.81,0,0,1,2.79-.2,18.06,18.06,0,1,1,0,36.11Z" transform="translate(-58.98)"/><path class="cls-1" d="M178.25,118.26A18.73,18.73,0,1,0,197,99.75,18.64,18.64,0,0,0,178.25,118.26Zm27,0a8.29,8.29,0,1,1-8.29-8.08A8.2,8.2,0,0,1,205.26,118.26Z" transform="translate(-58.98)"/><path class="cls-1" d="M331.13,209.93h82.61a5.22,5.22,0,0,0,5.22-5.22V31.82a5.22,5.22,0,0,0-5.22-5.22H162.53a5.21,5.21,0,0,0-5.21,5.22V204.71a5.22,5.22,0,0,0,5.21,5.22H310.42a5.22,5.22,0,0,0,0-10.44h-95a41.76,41.76,0,0,0,.28-4.75c0-23.05-19-41.79-42.36-41.79a41.65,41.65,0,0,0-5.59.37V83.21a43.37,43.37,0,0,0,5.59.37c23.35,0,42.36-18.75,42.36-41.79a42.07,42.07,0,0,0-.28-4.76H360.86a42.07,42.07,0,0,0-.28,4.76c0,23,19,41.79,42.36,41.79a43.49,43.49,0,0,0,5.59-.37v70.11a41.76,41.76,0,0,0-5.59-.37c-23.36,0-42.36,18.74-42.36,41.79a41.76,41.76,0,0,0,.28,4.75H331.13a5.22,5.22,0,1,0,0,10.44ZM173.34,163.38c17.6,0,31.92,14.07,31.92,31.36a31.71,31.71,0,0,1-.38,4.76H167.75V163.87A32.63,32.63,0,0,1,173.34,163.38Zm0-90.23a32.63,32.63,0,0,1-5.59-.49V37h37.13a31.71,31.71,0,0,1,.38,4.76C205.26,59.08,190.94,73.15,173.34,73.15Zm235.18-.49a32.43,32.43,0,0,1-5.58.49c-17.6,0-31.93-14.07-31.93-31.36A30.46,30.46,0,0,1,371.4,37h37.12Zm-5.58,90.72a32.63,32.63,0,0,1,5.59.49V199.5H371.4a30.46,30.46,0,0,1-.39-4.76C371,177.45,385.34,163.38,402.94,163.38Z" transform="translate(-58.98)"/><path class="cls-1" d="M398,118.26a18.73,18.73,0,1,0-18.73,18.52A18.64,18.64,0,0,0,398,118.26Zm-27,0a8.29,8.29,0,1,1,8.29,8.09A8.2,8.2,0,0,1,371,118.26Z" transform="translate(-58.98)"/><path class="cls-1" d="M288.14,96.42a21.85,21.85,0,1,0,22.1,21.84A22,22,0,0,0,288.14,96.42Zm0,33.25a11.41,11.41,0,1,1,11.66-11.41A11.56,11.56,0,0,1,288.14,129.67Z" transform="translate(-58.98)"/><path class="cls-1" d="M89.56,339H83V305.88H65.5V339H59V300.26H89.56Z" transform="translate(-58.98)"/><path class="cls-1" d="M133,319.64q0,9.78-4.72,15.1t-12.55,5.32q-8.07,0-12.7-5.49t-4.63-14.93q0-9.7,4.77-15.08a16,16,0,0,1,12.56-5.37q7.85,0,12.55,5.36T133,319.64Zm-6.73,0q0-7.51-2.74-11.18a9.15,9.15,0,0,0-7.8-3.66,9.25,9.25,0,0,0-7.85,3.66q-2.76,3.66-2.76,11.18,0,7.29,2.76,11a10.05,10.05,0,0,0,15.64.07Q126.25,327.06,126.25,319.64Z" transform="translate(-58.98)"/><path class="cls-1" d="M175,348.28h-6.07v-9.4H143.43v9.4h-6.07V333.44h2.57a49.75,49.75,0,0,0,5.39-14.13,81.27,81.27,0,0,0,2.1-19.05h23.74v33.18H175Zm-10.37-14.84v-27.7H153.55a76.53,76.53,0,0,1-2.37,15.83,45,45,0,0,1-4.84,11.87Z" transform="translate(-58.98)"/><path class="cls-1" d="M211,306a15.54,15.54,0,0,1,3.5,5.81,24.21,24.21,0,0,1,1.25,8.16,23.32,23.32,0,0,1-1.42,8.27,19,19,0,0,1-3.85,6.4,17.06,17.06,0,0,1-5.53,4.07,15.73,15.73,0,0,1-6.6,1.37,17.28,17.28,0,0,1-6.68-1.26,13.25,13.25,0,0,1-5.18-3.9,22.07,22.07,0,0,1-4-8.25,48,48,0,0,1-1.34-12.28c0-1.73.08-3.49.23-5.28a56.22,56.22,0,0,1,1-6.43,34.18,34.18,0,0,1,1.87-6.19,15.15,15.15,0,0,1,3.08-4.84,17.43,17.43,0,0,1,6.44-4.09,39.76,39.76,0,0,1,10.52-2.11c1.54-.14,3.2-.28,5-.4l4-.3v6c-1.2.07-2.49.16-3.85.26l-4.68.36a45.94,45.94,0,0,0-7.31,1.23,11.84,11.84,0,0,0-5.76,3,10.47,10.47,0,0,0-2.32,4.26,31.23,31.23,0,0,0-1.21,6.17,29.6,29.6,0,0,1,5.49-3.1,15.83,15.83,0,0,1,6.33-1.26,17.12,17.12,0,0,1,6,1.05A13.49,13.49,0,0,1,211,306Zm-1.87,14.36q0-6.18-2.77-9.47t-7.91-3.29a16.24,16.24,0,0,0-5.44.93,22.41,22.41,0,0,0-5,2.5c0,.58-.09,1.27-.14,2.06s-.07,1.52-.07,2.17a41,41,0,0,0,1,9.81,15.5,15.5,0,0,0,2.71,5.93,8.92,8.92,0,0,0,3.29,2.69,9.62,9.62,0,0,0,3.78.74,9.09,9.09,0,0,0,7.77-3.78Q209.15,326.85,209.14,320.34Z" transform="translate(-58.98)"/><path class="cls-1" d="M256.58,319.64q0,9.78-4.71,15.1a16,16,0,0,1-12.55,5.32q-8.08,0-12.71-5.49T222,319.64q0-9.7,4.77-15.08a17.38,17.38,0,0,1,25.12,0Q256.58,309.9,256.58,319.64Zm-6.73,0q0-7.51-2.73-11.18a10.21,10.21,0,0,0-15.66,0q-2.75,3.66-2.75,11.18,0,7.29,2.75,11a10.05,10.05,0,0,0,15.64.07Q249.86,327.06,249.85,319.64Z" transform="translate(-58.98)"/><path class="cls-1" d="M297.89,318.6q0,9.67-4.63,15.41a14.41,14.41,0,0,1-11.7,5.74,17.92,17.92,0,0,1-5.1-.66,20.23,20.23,0,0,1-4.54-2v16.22H265.4v-53h6.52v4.06a23.72,23.72,0,0,1,5.39-3.66,14.36,14.36,0,0,1,6.47-1.47,12,12,0,0,1,10.38,5.27Q297.88,309.73,297.89,318.6Zm-6.73.73q0-6.61-2.11-10.28t-6.87-3.66a12.23,12.23,0,0,0-5.36,1.24,23,23,0,0,0-4.9,3.17v21.94a23.09,23.09,0,0,0,4.39,1.7,17.41,17.41,0,0,0,4.17.45,9.28,9.28,0,0,0,7.87-3.71Q291.16,326.47,291.16,319.33Z" transform="translate(-58.98)"/><path class="cls-1" d="M362.26,339h-8.11l-13.28-17.86h-3.26V339h-6.52V300.26h6.52v16.85a8.69,8.69,0,0,0,4.32-1.06,7.88,7.88,0,0,0,3-4c.25-.58.54-1.25.85-2s.56-1.43.75-2a11.5,11.5,0,0,1,4.22-6,12.67,12.67,0,0,1,7-1.77h1.77v5.62H358.1A6.3,6.3,0,0,0,354,307a8.6,8.6,0,0,0-2.3,4.1,15.12,15.12,0,0,1-2.29,4.7,10,10,0,0,1-2.91,2.58Z" transform="translate(-58.98)"/><path class="cls-1" d="M400.44,319.64q0,9.78-4.71,15.1t-12.55,5.32q-8.08,0-12.71-5.49t-4.62-14.93q0-9.7,4.76-15.08a16,16,0,0,1,12.57-5.37q7.83,0,12.55,5.36T400.44,319.64Zm-6.72,0q0-7.51-2.74-11.18a10.19,10.19,0,0,0-15.65,0q-2.76,3.66-2.76,11.18,0,7.29,2.76,11a10,10,0,0,0,15.63.07Q393.72,327.06,393.72,319.64Z" transform="translate(-58.98)"/><path class="cls-1" d="M439.63,327.27a11,11,0,0,1-1.07,5,10.35,10.35,0,0,1-2.95,3.63,13.3,13.3,0,0,1-4.94,2.48,26.35,26.35,0,0,1-6.19.64H409.27V300.26h14.21a54,54,0,0,1,6.24.26,11.14,11.14,0,0,1,3.92,1.34,7.12,7.12,0,0,1,3,2.94,9.24,9.24,0,0,1,1,4.37,8.59,8.59,0,0,1-1.52,5,10.18,10.18,0,0,1-4.06,3.41l.18.25A10.16,10.16,0,0,1,437.5,321,9.12,9.12,0,0,1,439.63,327.27Zm-8.7-17.09a5.57,5.57,0,0,0-.43-2.29,3.15,3.15,0,0,0-1.51-1.53,7.22,7.22,0,0,0-2.79-.77c-1-.09-2.46-.13-4.28-.13h-6.21v10.61h7.49a17.74,17.74,0,0,0,3.4-.22,7.6,7.6,0,0,0,2.22-1,3.89,3.89,0,0,0,1.63-1.87A7.5,7.5,0,0,0,430.93,310.18Zm2,17.12a7.46,7.46,0,0,0-.57-3.17,5.06,5.06,0,0,0-2.52-2.13,7.63,7.63,0,0,0-2.6-.73c-.92-.09-2.2-.14-3.84-.14h-7.67v12.66h5.65a40.06,40.06,0,0,0,5.45-.28,8.73,8.73,0,0,0,3.33-1.11,5.84,5.84,0,0,0,2.11-2.08A6.11,6.11,0,0,0,432.91,327.3Z" transform="translate(-58.98)"/><path class="cls-1" d="M481.11,318.6q0,9.67-4.63,15.41a14.38,14.38,0,0,1-11.7,5.74,17.9,17.9,0,0,1-5.09-.66,20,20,0,0,1-4.54-2v16.22h-6.52v-53h6.52v4.06a23.5,23.5,0,0,1,5.39-3.66,14.32,14.32,0,0,1,6.46-1.47,12,12,0,0,1,10.39,5.27Q481.11,309.73,481.11,318.6Zm-6.72.73q0-6.61-2.12-10.28t-6.86-3.66a12.2,12.2,0,0,0-5.36,1.24,22.76,22.76,0,0,0-4.9,3.17v21.94a23.3,23.3,0,0,0,4.38,1.7,17.5,17.5,0,0,0,4.18.45,9.29,9.29,0,0,0,7.87-3.71Q474.39,326.47,474.39,319.33Z" transform="translate(-58.98)"/><path class="cls-1" d="M511.64,334.86c-.54.39-1.25.94-2.14,1.65a15.65,15.65,0,0,1-2.58,1.68,20,20,0,0,1-3.34,1.39,16.69,16.69,0,0,1-4.53.48,11.72,11.72,0,0,1-8.32-3.43,12,12,0,0,1-2.5-3.93,13.32,13.32,0,0,1-.93-4.95,13,13,0,0,1,1.7-6.84,11.54,11.54,0,0,1,5.37-4.49,26.44,26.44,0,0,1,7.7-2.06q4.44-.58,9.57-.85v-1.25a8.36,8.36,0,0,0-.7-3.69A5.13,5.13,0,0,0,509,306.4a7.75,7.75,0,0,0-3.05-1.06,26.45,26.45,0,0,0-3.71-.26,25,25,0,0,0-5.3.68,34.85,34.85,0,0,0-6.1,2h-.39v-6.63q1.82-.51,5.17-1.14a36.94,36.94,0,0,1,6.66-.62A31.18,31.18,0,0,1,509,300a13,13,0,0,1,4.92,2.25,9.68,9.68,0,0,1,3.16,4.13,16.31,16.31,0,0,1,1,6.17V339h-6.48Zm0-5.41V318.71c-1.55.13-3.51.33-5.88.57a31.49,31.49,0,0,0-5.74,1,10.5,10.5,0,0,0-4.3,2.45,6.1,6.1,0,0,0-1.7,4.59,6.46,6.46,0,0,0,1.88,5,7.88,7.88,0,0,0,5.47,1.69,11.68,11.68,0,0,0,5.59-1.33A24.25,24.25,0,0,0,511.64,329.45Z" transform="translate(-58.98)"/></g></g></svg>