<svg xmlns="http://www.w3.org/2000/svg" viewBox="0 0 436.95 355.48"><defs><style>.cls-1{fill:#878787;}</style></defs><title>cart-icon</title><g id="Слой_2" data-name="Слой 2"><g id="Layer_1" data-name="Layer 1"><g id="g3"><g id="g5"><path id="path7" class="cls-1" d="M.1.05C33,0,65.92.08,98.82,0c4.52,16.66,8.37,33.5,12.9,50.16q162.62,0,325.23,0Q408.21,141,379.74,231.93c-19,.5-38,.07-57,.21q-82.45,0-164.91,0c1.13,5.34,2.44,10.65,4,15.88,21.08-1.67,41.11,11.17,51.43,29,33.79,0,67.6,0,101.41,0,3.23-.41,7.38,1,10-1.06,9.82-16.68,28.5-28.64,48.24-28,27.87.92,52.58,26.19,52.5,54-.22,28.31-26,53.78-54.53,53.48-29.08-.32-54.86-27.32-53.51-56.31-32.58.05-65.16-.05-97.75.06,1.56,29.07-24.53,56.07-53.64,56.25-28.72.17-54.73-25.93-54.25-54.54.28-19.08,12.33-36.55,28.54-46.08-6.06-25.49-12.76-50.84-19.12-76.26C108,126.47,94.94,74.28,81.57,22.18c-27.16-.05-54.31.08-81.46-.07Q-.11,11.09.1.05Zm117,72.15C128.89,118.09,140.36,164.05,152,210c73.8-.47,143,.85,211.5-.14,12.77-41.81,26.22-83.42,39.22-125.16,1.26-4.1,2.81-8.13,3.56-12.37-96.39,0-192.78.11-289.18-.08Zm42.25,198.35c-8.84,1.28-17.14,6.59-21.42,14.49-7.47,13.89-4.83,33.91,8.84,43.06,14.11,9.1,36.09,6.78,45.64-7.83,7.68-12.23,7-29.86-2.89-40.73C182.07,271.37,170.06,268.81,159.39,270.55Zm204.92.12a29.51,29.51,0,0,0-19,11.78c-5.44,7.75-6.58,17.83-4.9,27A28.69,28.69,0,0,0,355.84,330c13.8,6.53,33,3.94,42-9.23,8-12.24,7.45-30.07-2.43-41.13-7.7-8.44-20.13-11-31.07-9Z"/></g></g></g></g></svg>