<?xml version="1.0" encoding="UTF-8" standalone="no"?>
<!-- Generator: Adobe Illustrator 15.0.0, SVG Export Plug-In . SVG Version: 6.00 Build 0)  -->

<svg
   xmlns:dc="http://purl.org/dc/elements/1.1/"
   xmlns:cc="http://creativecommons.org/ns#"
   xmlns:rdf="http://www.w3.org/1999/02/22-rdf-syntax-ns#"
   xmlns:svg="http://www.w3.org/2000/svg"
   xmlns="http://www.w3.org/2000/svg"
   xmlns:sodipodi="http://sodipodi.sourceforge.net/DTD/sodipodi-0.dtd"
   xmlns:inkscape="http://www.inkscape.org/namespaces/inkscape"
   version="1.1"
   id="Layer_1"
   x="0px"
   y="0px"
   width="512px"
   height="355.483px"
   viewBox="0 0 512 355.483"
   enable-background="new 0 0 512 355.483"
   xml:space="preserve"
   inkscape:version="0.91 r13725"
   sodipodi:docname="bskt.svg"><metadata
     id="metadata13"><rdf:RDF><cc:Work
         rdf:about=""><dc:format>image/svg+xml</dc:format><dc:type
           rdf:resource="http://purl.org/dc/dcmitype/StillImage" /></cc:Work></rdf:RDF></metadata><defs
     id="defs11" /><sodipodi:namedview
     pagecolor="#ffffff"
     bordercolor="#666666"
     borderopacity="1"
     objecttolerance="10"
     gridtolerance="10"
     guidetolerance="10"
     inkscape:pageopacity="0"
     inkscape:pageshadow="2"
     inkscape:window-width="1920"
     inkscape:window-height="1018"
     id="namedview9"
     showgrid="false"
     inkscape:zoom="1.8777517"
     inkscape:cx="262.83938"
     inkscape:cy="200.87008"
     inkscape:window-x="-8"
     inkscape:window-y="-8"
     inkscape:window-maximized="1"
     inkscape:current-layer="Layer_1" /><g
     id="g3"
     style="fill:#f9f9f9"
     transform="matrix(-1,0,0,1,525.05375,0)"><g
       id="g5"
       style="fill:#f9f9f9"><path
         d="M 480.895,0.05 C 447.992,0 415.08,0.08 382.177,0 377.657,16.66 373.811,33.5 369.281,50.16 260.872,50.17 152.464,50.2 44.054,50.14 63.207,110.71 82.3,171.3 101.262,231.93 c 19.002,0.5 38.014,0.07 57.026,0.21 54.967,0.02 109.945,-0.03 164.913,0.02 -1.135,5.34 -2.441,10.65 -4.038,15.88 -21.081,-1.67 -41.118,11.17 -51.432,28.99 -33.796,0.04 -67.603,-0.02 -101.409,0.02 -3.234,-0.41 -7.382,1.03 -10.043,-1.06 -9.822,-16.68 -28.503,-28.64 -48.238,-28 -27.871,0.92 -52.578,26.19 -52.498,54.01 0.221,28.31 26.042,53.78 54.526,53.48 29.085,-0.32 54.856,-27.32 53.511,-56.31 32.581,0.05 65.162,-0.05 97.753,0.06 -1.567,29.07 24.526,56.07 53.632,56.25 28.725,0.17 54.737,-25.93 54.255,-54.54 -0.281,-19.08 -12.333,-36.55 -28.543,-46.08 6.066,-25.49 12.765,-50.84 19.123,-76.26 13.227,-52.13 26.264,-104.32 39.631,-156.42 27.158,-0.05 54.305,0.08 81.462,-0.07 0.142,-7.35 0.142,-14.71 0.002,-22.06 z M 363.858,72.2 c -11.751,45.89 -23.221,91.85 -34.901,137.75 -73.7985,-0.46744 -143.01288,0.85091 -211.494,-0.14 C 104.688,168 91.24,126.39 78.243,84.65 c -1.266,-4.1 -2.812,-8.13 -3.565,-12.37 96.387,-0.05 192.783,0.11 289.18,-0.08 z m -42.253,198.35 c 8.848,1.28 17.145,6.59 21.423,14.49 7.472,13.89 4.831,33.91 -8.838,43.06 -14.111,9.1 -36.086,6.78 -45.637,-7.83 -7.684,-12.23 -6.971,-29.86 2.882,-40.73 7.492,-8.17 19.504,-10.73 30.17,-8.99 z m -204.916,0.12 c 7.513,1.36 14.664,5.45 19.032,11.78 5.434,7.75 6.579,17.83 4.901,26.97 -1.627,8.74 -7.342,16.74 -15.467,20.59 -13.799,6.53 -32.992,3.94 -41.961,-9.23 -7.985,-12.24 -7.453,-30.07 2.43,-41.13 7.694,-8.44 20.128,-10.98 31.065,-8.98 z"
         id="path7"
         inkscape:connector-curvature="0"
         style="fill:#f9f9f9"
         sodipodi:nodetypes="cccccccccccccccccccccccccccccccccccccccccc" /></g></g></svg>