<svg xmlns="http://www.w3.org/2000/svg" viewBox="0 0 360 512"><defs><style>.cls-1{fill:#878787;}</style></defs><title>city-icon</title><g id="Слой_2" data-name="Слой 2"><g id="Capa_1" data-name="Capa 1"><path class="cls-1" d="M180,0C80.7,0,0,80.7,0,180a177.49,177.49,0,0,0,27,94.5L167.8,504.92a14.21,14.21,0,0,0,10.2,6.9,14.93,14.93,0,0,0,15.3-7.2L334.5,272.1A177.51,177.51,0,0,0,360,180C360,80.7,279.3,0,180,0Zm0,270a89.88,89.88,0,0,1-90-90c0-49.5,40.5-90,90-90s90,40.5,90,90A89.68,89.68,0,0,1,180,270Z"/></g></g></svg>