<svg xmlns="http://www.w3.org/2000/svg" viewBox="0 0 718.91 505"><defs><style>.cls-1{fill:#878787;}</style></defs><title>delivery-icon</title><g id="Слой_2" data-name="Слой 2"><g id="Слой_1-2" data-name="Слой 1"><g id="Слой_2-2" data-name="Слой 2"><g id="Слой_1-2-2" data-name="Слой 1-2"><path class="cls-1" d="M684.54,347.41H337.59a10.27,10.27,0,0,1-10.26-10.28h0V30.79A30.79,30.79,0,0,1,358.12,0H664a30.81,30.81,0,0,1,30.8,30.82h0V337.14a10.27,10.27,0,0,1-10.27,10.27ZM511.67,377.26a63.87,63.87,0,1,1-63.86,63.89v0A63.87,63.87,0,0,1,511.67,377.26Zm.4,96.64A31.94,31.94,0,1,0,480.14,442h0a31.94,31.94,0,0,0,31.92,32h0Zm80.56-44.16h116a10.26,10.26,0,0,0,10.26-10.27V387.8a10.26,10.26,0,0,0-10.26-10.27H563.93A85.08,85.08,0,0,1,592.63,429.74ZM176.72,377.25a63.88,63.88,0,1,1-63.88,63.87,63.87,63.87,0,0,1,63.88-63.87Zm0,96.65A31.94,31.94,0,1,0,144.78,442h0a31.93,31.93,0,0,0,31.91,32h0ZM10.37,377.53H36.15V238.43a82,82,0,0,1,14-45.83l62.24-92.26a81.76,81.76,0,0,1,67.8-36.08h96.47A20.53,20.53,0,0,1,297.2,84.79V377.53H457.53a85.18,85.18,0,0,0-28.7,52.21H262.88a85.16,85.16,0,0,0-168.55,0h-84A10.37,10.37,0,0,1,0,419.37H0V387.91a10.37,10.37,0,0,1,10.37-10.38Zm101.2-166.68H240.75A10.26,10.26,0,0,0,251,200.59V128.75a10.27,10.27,0,0,0-10.27-10.27H162a10.36,10.36,0,0,0-8.48,4.38L103.1,194.51a10.36,10.36,0,0,0,8.47,16.34Z"/></g></g></g></g></svg>