<svg xmlns="http://www.w3.org/2000/svg" viewBox="0 0 323.58 343.4"><defs><style>.cls-1{fill:#bab6b8;}.cls-2,.cls-3,.cls-4{fill:#fff;}.cls-2,.cls-3{stroke:#bab6b8;stroke-miterlimit:10;}.cls-3{stroke-width:4px;}</style></defs><title>delivery-icon</title><g id="Слой_2" data-name="Слой 2"><g id="Слой_2-2" data-name="Слой 2"><path class="cls-1" d="M177.51.61,54.44,93.85a3,3,0,0,0,1.81,5.39H302.4a3,3,0,0,0,1.81-5.39L181.14.61A3,3,0,0,0,177.51.61Z" transform="translate(-53.25)"/><rect class="cls-1" x="25.58" y="93.74" width="203" height="26"/><rect class="cls-1" x="25.58" y="118.74" width="87" height="132" rx="2"/><rect class="cls-2" x="47.58" y="136.74" width="39" height="56" rx="2"/><rect class="cls-1" x="135.58" y="142.74" width="98" height="92" rx="2"/><circle class="cls-3" cx="161.58" cy="238.74" r="15.5"/><polygon class="cls-1" points="323.58 231.74 254.58 231.74 254.58 159.74 300.58 159.74 323.58 231.74"/><polygon class="cls-4" points="306.58 207.74 269.58 207.74 269.58 170.74 293.58 170.74 306.58 207.74"/><circle class="cls-3" cx="294.08" cy="239.24" r="15.5"/><path class="cls-1" d="M106.28,343.4h-6.07V334H74.7v9.4H68.63V328.56h2.56a49.16,49.16,0,0,0,5.39-14.13,81.27,81.27,0,0,0,2.1-19.05h23.75v33.18h3.85ZM95.91,328.56v-27.7H84.82a75.84,75.84,0,0,1-2.38,15.83,44.65,44.65,0,0,1-4.83,11.87Z" transform="translate(-53.25)"/><path class="cls-1" d="M146.68,314.76q0,9.78-4.71,15.1a16,16,0,0,1-12.55,5.32q-8.08,0-12.71-5.49t-4.63-14.93q0-9.7,4.77-15.08a17.38,17.38,0,0,1,25.12,0Q146.68,305,146.68,314.76Zm-6.72,0q0-7.51-2.74-11.18a10.21,10.21,0,0,0-15.66,0q-2.75,3.66-2.75,11.18,0,7.29,2.75,11a10.05,10.05,0,0,0,15.64.07Q140,322.18,140,314.76Z" transform="translate(-53.25)"/><path class="cls-1" d="M170.89,335a21,21,0,0,1-7.31-1.23,15,15,0,0,1-5.72-3.72,17,17,0,0,1-3.71-6.3,27.16,27.16,0,0,1-1.32-8.92A25.52,25.52,0,0,1,154.2,306a19.09,19.09,0,0,1,3.66-6.24,15.17,15.17,0,0,1,5.7-3.9,19.58,19.58,0,0,1,7.33-1.37,21.11,21.11,0,0,1,6.16.9,33.53,33.53,0,0,1,5.29,2.08v7.32H182a21.85,21.85,0,0,0-1.78-1.35,22.43,22.43,0,0,0-2.65-1.56,17.16,17.16,0,0,0-3.19-1.22,13.31,13.31,0,0,0-3.54-.52,9.92,9.92,0,0,0-8.13,3.83q-3.06,3.84-3.07,10.84t3,10.69a9.8,9.8,0,0,0,8.23,3.83,14.53,14.53,0,0,0,6.07-1.31,18.81,18.81,0,0,0,5.09-3.4h.39v7.31l-2.43,1.1a19.15,19.15,0,0,1-2.64,1c-1.11.32-2.1.57-3,.74A17.58,17.58,0,0,1,170.89,335Z" transform="translate(-53.25)"/><path class="cls-1" d="M218.68,301.1H205.51v33H199v-33H185.82v-5.72h32.86Z" transform="translate(-53.25)"/><path class="cls-1" d="M247.3,330q-.8.58-2.13,1.65a15.3,15.3,0,0,1-2.59,1.68,20,20,0,0,1-3.34,1.39,16.64,16.64,0,0,1-4.53.48,11.72,11.72,0,0,1-8.32-3.43,11.8,11.8,0,0,1-2.49-3.93,14.13,14.13,0,0,1,.76-11.79,11.54,11.54,0,0,1,5.37-4.49,26.52,26.52,0,0,1,7.7-2.06q4.44-.59,9.57-.85v-1.25a8.37,8.37,0,0,0-.69-3.69,5.15,5.15,0,0,0-2-2.17,7.69,7.69,0,0,0-3-1.06,26.35,26.35,0,0,0-3.71-.26,25,25,0,0,0-5.3.68,35.12,35.12,0,0,0-6.1,2h-.38v-6.63q1.8-.51,5.16-1.14a36.94,36.94,0,0,1,6.66-.62,31.12,31.12,0,0,1,6.72.62,13.12,13.12,0,0,1,4.93,2.25,9.66,9.66,0,0,1,3.15,4.13,16.11,16.11,0,0,1,1,6.17v26.49H247.3Zm0-5.41V313.83c-1.55.13-3.51.33-5.88.57a31.2,31.2,0,0,0-5.73,1,10.38,10.38,0,0,0-4.3,2.45,6.06,6.06,0,0,0-1.7,4.59,6.45,6.45,0,0,0,1.87,5,7.9,7.9,0,0,0,5.48,1.69,11.67,11.67,0,0,0,5.58-1.33A24.25,24.25,0,0,0,247.3,324.57Z" transform="translate(-53.25)"/><path class="cls-1" d="M295.43,322.39a11.11,11.11,0,0,1-1.07,5,10.35,10.35,0,0,1-2.95,3.63,13.3,13.3,0,0,1-4.94,2.48,26.35,26.35,0,0,1-6.19.64H265.06V295.38h14.22a54,54,0,0,1,6.24.26,11.14,11.14,0,0,1,3.92,1.34,7.18,7.18,0,0,1,3,2.94,9.24,9.24,0,0,1,1,4.37,8.59,8.59,0,0,1-1.52,5,10.18,10.18,0,0,1-4.06,3.41l.17.25a10.15,10.15,0,0,1,5.29,3.22A9.12,9.12,0,0,1,295.43,322.39Zm-8.7-17.09a5.57,5.57,0,0,0-.43-2.29,3.15,3.15,0,0,0-1.51-1.53,7.22,7.22,0,0,0-2.79-.77c-1-.09-2.46-.13-4.28-.13h-6.21v10.61H279a17.74,17.74,0,0,0,3.4-.22,7.6,7.6,0,0,0,2.22-1,3.89,3.89,0,0,0,1.63-1.87A7.5,7.5,0,0,0,286.73,305.3Zm2,17.12a7.46,7.46,0,0,0-.57-3.17,5.11,5.11,0,0,0-2.52-2.13,7.63,7.63,0,0,0-2.6-.73c-.92-.09-2.21-.14-3.85-.14h-7.66v12.66h5.65a40.06,40.06,0,0,0,5.45-.28,8.62,8.62,0,0,0,3.32-1.11,5.8,5.8,0,0,0,2.12-2.08A6.11,6.11,0,0,0,288.71,322.42Z" transform="translate(-53.25)"/><path class="cls-1" d="M335.59,334.11h-8.11L314.2,316.25H311v17.86h-6.52V295.38H311v16.85a8.67,8.67,0,0,0,4.31-1.06,7.88,7.88,0,0,0,3-4c.26-.58.54-1.25.85-2s.56-1.43.75-2a11.57,11.57,0,0,1,4.23-6,12.64,12.64,0,0,1,7-1.77h1.76V301h-1.49a6.29,6.29,0,0,0-4.1,1.13,8.52,8.52,0,0,0-2.31,4.1,15.12,15.12,0,0,1-2.29,4.7,10,10,0,0,1-2.91,2.58Z" transform="translate(-53.25)"/><path class="cls-1" d="M363.55,330q-.8.58-2.13,1.65a15.65,15.65,0,0,1-2.58,1.68,20.06,20.06,0,0,1-3.35,1.39,16.56,16.56,0,0,1-4.52.48,11.6,11.6,0,0,1-4.54-.9,11.47,11.47,0,0,1-3.78-2.53,12,12,0,0,1-2.5-3.93,13.32,13.32,0,0,1-.93-4.95,13,13,0,0,1,1.69-6.84,11.62,11.62,0,0,1,5.38-4.49,26.45,26.45,0,0,1,7.69-2.06q4.44-.59,9.57-.85v-1.25a8.37,8.37,0,0,0-.69-3.69,5.13,5.13,0,0,0-1.94-2.17,7.75,7.75,0,0,0-3.05-1.06,26.56,26.56,0,0,0-3.71-.26,25.11,25.11,0,0,0-5.31.68,35.12,35.12,0,0,0-6.1,2h-.38v-6.63q1.8-.51,5.17-1.14a36.91,36.91,0,0,1,6.65-.62,31.28,31.28,0,0,1,6.73.62,13.15,13.15,0,0,1,4.92,2.25,9.66,9.66,0,0,1,3.15,4.13,16.11,16.11,0,0,1,1,6.17v26.49h-6.48Zm0-5.41V313.83c-1.55.13-3.51.33-5.87.57a31.33,31.33,0,0,0-5.74,1,10.38,10.38,0,0,0-4.3,2.45,6.1,6.1,0,0,0-1.7,4.59,6.45,6.45,0,0,0,1.87,5,7.92,7.92,0,0,0,5.48,1.69,11.62,11.62,0,0,0,5.58-1.33A23.65,23.65,0,0,0,363.55,324.57Z" transform="translate(-53.25)"/></g></g></svg>