<svg id="Слой_1" data-name="Слой 1" xmlns="http://www.w3.org/2000/svg" viewBox="0 0 2000.22 1996.02"><defs><style>.cls-1{fill:#878787;}</style></defs><title>gear-icon</title><path class="cls-1" d="M2029.59,1053.52c0,10-.15,20,0,30,.27,14.88,8,25.15,22.24,29.4q17.18,5.12,34.55,9.57c14.17,3.62,26.45-1.4,34.13-14,10.18-16.75,20-33.74,30.11-50.5,8.94-14.78,23-19.67,39.45-13.71a257,257,0,0,1,24,9.7c13.79,6.64,19.91,19.77,16.64,34.64-4.28,19.47-8.75,38.89-13,58.36-3.23,14.68,2.43,26.92,15.79,34.18,9.92,5.38,19.93,10.6,29.94,15.82,13.77,7.18,27.31,5,38.07-6.32,13.31-14,26.39-28.21,39.73-42.17,12-12.54,26.82-14.4,41.45-5.2,7,4.42,14,9,20.61,14,12.63,9.52,16.19,23.77,9.56,38.15-8.06,17.48-16.46,34.8-24.65,52.22-7.5,16-4.65,28.73,8.77,40,7.65,6.42,15.3,12.83,22.86,19.36,13.3,11.48,26.51,12.45,40.9,2.66,15.95-10.85,31.73-21.93,47.73-32.69,13.5-9.08,28.29-7.86,40.08,3.42,6.25,6,12.18,12.32,17.81,18.88,10.23,11.9,10.74,26.88,1.34,39.32-11.63,15.4-23.58,30.55-35.35,45.85-10.71,13.91-10.65,27,0,40.92q9.14,11.86,18.16,23.8c10.68,14.12,23.05,17.68,39.4,11.11,17.86-7.18,35.62-14.58,53.51-21.68,15.12-6,29.35-1.62,38.39,11.91,4.79,7.18,9.36,14.54,13.46,22.13,7.67,14.22,4.71,28.79-7.76,39.37-14.72,12.49-29.64,24.75-44.35,37.25-12.88,10.93-15.46,23.82-8.23,39.3,4.35,9.32,8.61,18.68,12.93,28,7.15,15.44,19.64,21.68,36.62,18.67,19-3.36,38-6.67,57-9.6,15.12-2.32,28.1,4.86,33.64,18.74a244.57,244.57,0,0,1,9,27.43c3.69,13.8-2,27.14-14.54,33.9-17.52,9.47-35.31,18.45-52.95,27.7-15.06,7.9-20.53,19.62-17,36.28,2.21,10.4,4.37,20.81,6.75,31.17,3.63,15.84,14,24.33,30.22,25.2,19.28,1,38.57,2,57.84,3.19,16.72,1,27.34,10.13,30.2,26.36a198.17,198.17,0,0,1,2.79,26.79c.6,15.92-7.94,27.17-23.43,31.51-18.86,5.28-37.8,10.28-56.68,15.51-15.25,4.23-23.55,14.93-23.66,30.39-.08,11.32-.11,22.64,0,34,.15,14.89,8.54,25.81,23.08,29.85,19.19,5.34,38.47,10.38,57.65,15.74,14.95,4.18,23.64,15.4,23,30.81a180.8,180.8,0,0,1-3.69,30.65c-3,13.77-13.63,22.13-27.68,23-19.94,1.23-39.89,2.21-59.84,3.3-15.65.85-26.05,9.35-29.64,24.63-2.58,11-4.85,22.06-7.13,33.12-3.07,14.87,2.48,27.21,15.77,34.25,17.31,9.17,34.83,17.92,52.15,27.07,15.51,8.2,21.08,21.61,16.05,38.49-2.37,7.95-5,15.85-8,23.56-5.6,14.1-18.42,21.63-33.3,19.36-19.06-2.91-38.07-6.15-57-9.55-18.17-3.26-29.85,2.78-37.63,19.9-4,8.76-8.07,17.48-12.17,26.18-7.76,16.5-5.09,28.82,9,40.71,14.25,12,28.6,23.91,42.82,36,13.34,11.3,16,25.74,7.49,40.94-4.06,7.24-8.31,14.41-13,21.28-8.76,13-23.13,17.43-37.64,11.72-18.22-7.17-36.28-14.72-54.46-22-15.87-6.35-28.23-2.83-38.64,10.8q-9.39,12.29-18.78,24.59c-10.33,13.49-10.43,26.67-.12,40.11,11.74,15.32,23.69,30.47,35.35,45.85,9.81,12.94,9.32,27.86-1.28,40.11-5.44,6.29-11.15,12.38-17.12,18.17-12.08,11.7-26.85,13-40.86,3.55-15.73-10.58-31.27-21.42-46.92-32.12-14.9-10.18-27.94-9.28-41.68,2.63-7.8,6.76-15.78,13.29-23.62,20-12.1,10.37-14.94,23-8.21,37.58,8.2,17.78,16.73,35.41,24.93,53.19,6.88,14.93,3.38,29.31-9.65,38.93a256.45,256.45,0,0,1-22.39,14.93c-13,7.66-27.85,5.59-38.26-5.23-13.39-13.92-26.49-28.11-39.72-42.18-12-12.79-25.09-15-40.42-6.84-9.38,5-18.83,9.84-28.2,14.86-13.78,7.38-19.52,19.71-16.17,34.93,4.28,19.47,8.74,38.89,13,58.36,2.95,13.41-2.38,26.79-14.47,33a174.76,174.76,0,0,1-30.42,12.29c-14.08,4.16-27.15-1.75-34.95-14.62-9.81-16.2-19.35-32.55-29-48.82-9.23-15.48-21.53-20.34-38.86-15.48-9.59,2.69-19.22,5.25-28.81,7.93-16.91,4.73-24.79,15.18-24.69,32.74.11,18.65.41,37.29.39,55.94,0,18.18-10.1,29.75-28.23,32.85-6.88,1.18-13.73,2.57-20.65,3.53-17.53,2.44-30.73-5.64-36.33-22.29-6.14-18.24-12-36.57-18.12-54.81-5.12-15.21-16.93-22.94-32.74-21.93-10.3.65-20.6,1.15-30.91,1.65-16.84.83-27.22,9.28-30.88,25.68-4.05,18.16-7.83,36.37-11.73,54.56-4,18.77-15.26,27.82-34.54,27.37-8.31-.19-16.64-.72-24.9-1.68-14.52-1.69-24.92-12.33-26.48-26.73-2.11-19.52-4.07-39-6.08-58.58-1.68-16.32-11.56-26.52-27.84-29-10.51-1.61-21-3.53-31.47-5.32-15.11-2.57-27.85,3.86-34.34,17.78-8.14,17.44-15.91,35.05-24,52.52-7.53,16.29-20.77,22.86-38.2,18.83-7.76-1.79-15.46-3.94-23-6.41-16.1-5.26-24.18-18.68-22.06-35.54q3.62-28.71,6.9-57.47c1.58-13.88-5.88-26.45-19-31.86-10.73-4.43-21.59-8.56-32.44-12.71-14.81-5.67-27.29-2.2-37.07,10.56-11.74,15.32-23.16,30.87-34.88,46.2-10.37,13.56-24.37,17.08-39.72,9.86a253.79,253.79,0,0,1-22.88-12.11c-13.58-8.18-18.58-21.91-13.59-36.87,6.08-18.26,12.45-36.42,18.66-54.64,5.73-16.8,1.7-28.75-13-38.72-9.08-6.16-18.08-12.44-27.26-18.44-12.27-8-25.56-7.32-36.85,2.15-15,12.63-29.78,25.61-44.81,38.26-13.36,11.24-28,11.51-41.74.79-6.55-5.12-13-10.45-19-16.16-11.36-10.77-13.42-25.68-5.44-39,9.89-16.54,20.11-32.88,30.14-49.34,9.17-15,7.71-28-4.45-40.67q-10.38-10.81-20.7-21.67c-12.45-13.12-25.09-15.09-41.23-6.42-16.67,9-33.28,18-50,26.82-14.43,7.57-29,4.74-39.44-7.69-5.55-6.62-10.86-13.49-15.73-20.62-8.84-12.92-7.72-27.84,3-39.26,13-13.85,26.29-27.38,39.43-41.07s14.39-26.17,4.54-42.27c-5.2-8.5-10.33-17.05-15.51-25.56-8.75-14.35-21.14-19.24-37.44-14.67-18.54,5.19-37,10.59-55.58,15.71-15.3,4.23-29-1.22-36.41-14.86a217.43,217.43,0,0,1-11.77-25.26c-5.65-14.61-.94-28.46,12.31-37.45,15.68-10.63,31.54-21,47.29-31.54,15-10,19.12-22.5,13.23-39.65-3.23-9.42-6.48-18.83-9.66-28.26q-8.22-24.35-34.16-22.77c-19.27,1.19-38.53,2.68-57.82,3.52-16.17.7-27.95-8.46-32-24.21-2.06-8-4-16.14-5.48-24.3-2.73-15,4.84-29,19-34.65,17.54-7.07,35.23-13.76,52.88-20.57,18.65-7.2,25.19-18.34,22.47-37.85q-1.78-12.85-2.75-25.8c-1.38-18.47-10.39-28.86-28.4-31.79-18.38-3-36.79-5.76-55.2-8.55-17.49-2.65-28-14.2-28.36-31.67-.18-8-.26-16,0-24,.62-15.82,11.17-27.6,26.74-30.06q27.59-4.35,55.21-8.46c19.25-2.89,28.49-13,30-32.49.71-9.28,1.93-18.53,3.15-27.76,2.09-15.82-4.75-28.17-19.61-34.12-18.17-7.28-36.51-14.14-54.69-21.37-16.47-6.54-23.61-20.19-19.89-37.55,1.53-7.15,3-14.3,4.84-21.39,4.16-16.49,15.65-25.47,32.5-24.78q26.44,1.09,52.83,3.23c22.34,1.83,32.85-4.75,39.8-25.71,2.72-8.19,5.55-16.34,8.38-24.49,6.27-18.1,2.09-30.11-14.22-41-15.23-10.12-30.49-20.19-45.63-30.45-14.49-9.82-18.63-23.84-11.8-40,3.23-7.64,6.6-15.25,10.5-22.56,7.38-13.84,21.15-19.69,36.14-15.56,18.56,5.12,37.05,10.48,55.58,15.72,16.92,4.78,29.16,0,38.2-14.87,5.52-9.09,11.07-18.15,16.53-27.28,8.17-13.68,6.94-26.65-4-38.28-13.25-14.05-26.85-27.77-40.11-41.81-12.3-13-13.15-27.79-2.62-42.39,4.48-6.2,9.08-12.33,14-18.21,10.74-12.92,25.3-15.83,40.19-8,16.45,8.66,32.78,17.56,49.15,26.38,16.79,9,29.14,7.14,42-6.43,7.1-7.49,14.34-14.85,21.42-22.36,10.77-11.42,12.36-24.94,4.28-38.34-10-16.5-20.22-32.81-30.19-49.3-9.21-15.23-6.91-30.19,6.39-42.05,5.71-5.09,11.53-10.09,17.59-14.77,13.36-10.31,28.08-10.09,41,.71,14.79,12.41,29.32,25.14,44,37.63,12.65,10.73,25.56,11.46,39.24,2.35q13.28-8.85,26.45-17.85c14.13-9.61,18.32-21.91,12.85-38-6.21-18.22-12.63-36.36-18.75-54.61-5.2-15.51-.19-29.31,13.83-37.64a252.33,252.33,0,0,1,22.9-12.06c15-6.95,29-3.5,39,9.54,11.35,14.77,22.46,29.73,33.66,44.62,11.71,15.57,23.59,18.81,41.83,11.46,9.54-3.84,19.16-7.48,28.68-11.37,14.08-5.76,21.27-18.4,19.41-33.45-2.38-19.15-4.65-38.31-6.92-57.47-1.78-15,5.6-27.88,19.87-33.07a186.27,186.27,0,0,1,27.77-7.77c16.46-3.22,28.54,3.34,35.6,18.57,8.09,17.46,15.9,35.06,24,52.51,6.8,14.65,19.25,21,34.94,18.24,10.15-1.78,20.3-3.62,30.48-5.17,17-2.59,26.79-12.68,28.47-29.49q2.92-29.3,6.07-58.58a29.24,29.24,0,0,1,25.86-26.22,255.11,255.11,0,0,1,28.89-1.76c15.2-.06,26.74,9.07,30.19,23.9,4.52,19.41,8.39,39,12.75,58.42,3.54,15.8,14,24.36,30.21,25.25,10.63.58,21.28,1.06,31.91,1.7,15.27.91,27.26-6.84,32.18-21.38,6.17-18.22,12-36.57,18.1-54.81,5.8-17.32,19-25.42,36.91-22.81,7.57,1.1,15.12,2.32,22.62,3.79,15.35,3,25.59,15.3,25.84,31,.16,10,0,20,0,30Zm65.62,923.26c.26-145.67-118.48-264.48-264.73-264.92-146.71-.43-265.91,118.05-266,264.43-.12,146,118.11,264.43,264.55,264.92S2095,2123.08,2095.21,1976.77ZM1929.05,2497.5c0,31.62-.08,63.24.06,94.86a177.48,177.48,0,0,0,1.37,21.89c5.72,44.24,46,72.36,89.11,60.87,123.73-33,230.75-95.39,322-185.06,11.69-11.49,19.27-25.44,20.68-42.06,2.91-34.2-13.51-58-41.8-74.52-58.53-34.08-117.33-67.68-176.06-101.41-18-10.33-34.94-8.79-50.6,4.78a403.76,403.76,0,0,1-133.69,77.34c-21.6,7.47-31,21.2-31,44.44Q1929,2448.07,1929.05,2497.5Zm0-1049.74c0,40.21,0,73.16,0,106.11,0,24.27,9.39,37.62,32.39,45.54,48.65,16.77,92.22,42.25,131.16,75.8,17.2,14.82,33.19,16.33,53,5q86.36-49.62,172.67-99.34a114.66,114.66,0,0,0,18-12.45c33.44-29.1,36-75,5-105.66-90.54-89.38-197.23-151.21-320.08-184.5-45.14-12.23-86.29,16.46-90.74,63C1926.78,1379.08,1930,1417.1,1929.05,1447.77Zm-198.66,1051q0-50.93,0-101.86c0-21.2-9.72-35.14-29.85-42.15a410.19,410.19,0,0,1-134.66-77.66c-16.21-14-32.69-15.34-51.38-4.59q-80.29,46.19-160.54,92.47c-8.9,5.14-18.08,10-26.25,16.2-38.52,29.13-41.53,77.88-7.16,111.6a707.92,707.92,0,0,0,58.43,51.42c78.3,61.51,165.26,105.87,261.65,131.2,35,9.19,68.07-7.71,82.56-40.88,5.15-11.78,7.21-24.13,7.21-36.89Q1730.41,2548.17,1730.39,2498.74Zm0-1043.15c0-34.62.49-69.24-.11-103.85-.92-53.21-43.6-87-93.29-73.27-122,33.6-228.06,95.15-318.34,183.8-13,12.76-21.15,28.18-21.73,46.76-1,32.43,15.28,54.94,42.15,70.55,58.57,34,117.35,67.66,176.08,101.4,18,10.35,34.76,8.87,50.56-4.81a409.56,409.56,0,0,1,134.61-77.74c20.59-7.17,30.08-21,30.1-43Q1730.42,1505.51,1730.37,1455.58Zm825.71,527c.16-68.49-7.67-130.36-24.12-191-7.41-27.36-25.26-45.05-53.1-51-21-4.53-40.8.44-59.37,11.17q-87.56,50.61-175.29,100.92c-18.53,10.68-25.28,26.65-21.12,48.13a394.15,394.15,0,0,1,0,151.76c-4.22,21.65,2.81,37.51,22.1,48.6q56.13,32.3,112.3,64.54c22.18,12.74,44.09,26,66.6,38.07,47.21,25.4,96.64,4,109.46-47C2548.32,2097.7,2556.34,2037.86,2556.07,1982.58Zm-1452.83-1.39a717.37,717.37,0,0,0,23.82,178.91c9.55,36,38.77,56.47,75.92,53.59,13.94-1.08,26.41-6.17,38.33-13q86.79-49.95,173.58-99.91c18.14-10.45,25.77-25.24,21.83-45.91a414,414,0,0,1,0-156.72c3.93-20.63-3.73-35.38-21.91-45.87q-47-27.13-94.14-54.16c-28.51-16.38-56.7-33.37-85.66-48.91-47.55-25.53-96.29-3.51-109.38,48.64C1110.92,1856.5,1103.38,1916.07,1103.25,1981.19Z" transform="translate(-827.33 -978.54)"/></svg>