<svg id="Слой_1" data-name="Слой 1" xmlns="http://www.w3.org/2000/svg" viewBox="0 0 2085.1 1583"><defs><style>.cls-1{fill:#909090;}.cls-2{fill:none;}</style></defs><title>house-icon</title><g id="Стул"><rect class="cls-1" width="68" height="1356"/><rect class="cls-1" x="238" y="989.2" width="68" height="593.8"/><rect class="cls-1" x="841" y="989.2" width="68" height="593.8"/><rect class="cls-1" x="604" width="68" height="1356"/><rect class="cls-1" width="672" height="152"/><rect class="cls-1" y="281" width="672" height="152"/><polygon class="cls-1" points="909 989.2 237.57 989.2 0 687.2 671.43 687.2 909 989.2"/><line class="cls-2" x1="68" y1="773.64" x2="237.57" y2="989.2"/><rect class="cls-1" x="1030.84" y="2286.08" width="33.89" height="381.35" transform="matrix(0.79, -0.62, 0.62, 0.79, -2202.05, -257.07)"/><rect class="cls-1" x="1440.07" y="2307.78" width="58.85" height="549" transform="translate(-2007.78 2616.78) rotate(-90)"/></g><path class="cls-1" d="M1796.78,1556.26c21.32,5.75,35.69,20.75,50.18,36.27q289,309.56,578.21,618.89c5.59,6,11.18,8.42,19.27,8.68q261.09,8.47,522.18,17.16c10.68.34,14.92,2.49,13,13.79-1.57,9.33,2,22-3,27.6-5.26,5.88-18,1.2-27.48.94-37.15-1-74.31-2.2-111.44-3.84-8.05-.35-11.79,1-12.62,10.09a297.28,297.28,0,0,1-11.8,58.77c-2.15,7.16-.7,10,6.73,12.12,30,8.72,59.72,18.31,89.62,27.33,8.18,2.47,15,6.19,20.73,12.9,9.75,11.42,20.11,22.37,30.78,32.95,5.21,5.16,4.74,8.23-.65,12.67-8.36,6.89-15.71,19.66-24.27,20.36-8.82.72-15.58-13.18-22.54-21.2-9.87-11.37-21-19-36-22.79-24.59-6.23-48.74-14.32-72.82-22.39-6.52-2.19-8.72-.44-10.85,5.14a346.49,346.49,0,0,1-24.78,51.73c-3.75,6.39-2.61,8.87,3.81,11.9,20.32,9.59,39.9,20.86,60.57,29.58,29.43,12.42,54.15,30.22,74.25,55.14,11.13,13.79,12,13.13-.62,24.87-18.69,17.46-19.27,18-36.17-1.59a137.69,137.69,0,0,0-48.44-36.17c-24.63-11.15-48.65-23.67-72.75-36-5.8-3-9-2.88-13,3a331.84,331.84,0,0,1-40.69,49.08c-6,5.9-4.9,9.23.33,14.75,35,37,69.51,74.52,104.69,111.37,6.53,6.84,7,10.76-.7,16.32-8.37,6.05-14.67,19.52-23.48,18.75-7.52-.65-14.1-13-20.95-20.28-30.27-32.3-60.61-64.55-90.59-97.11-5.13-5.57-8.39-7.06-14.68-1.35-13.61,12.35-28.68,22.95-44.24,32.7-4.94,3.1-5.66,5.54-3,10.73,18,35.23,35.11,70.93,53.73,105.82,8.27,15.5,22.87,26.4,34.78,39.2,5.06,5.44,5.9,8.42-.4,13.33-8.5,6.62-15.9,19.58-24.3,20-8.88.48-14.49-14.39-22.56-21.48-25.66-22.56-36.57-54.25-51.86-83.2-8.75-16.57-17.23-33.29-25.19-50.25-3-6.43-5.37-8.92-12.68-5.08a361.16,361.16,0,0,1-62.3,25.53c-6,1.84-7.31,4.22-5.68,10.68,7.43,29.47,14.08,59.13,21,88.72,2.68,11.41,13,17,19.55,25.44,5.76,7.45,18,13.21,17,21.45-.87,7.07-12.55,12.42-18.52,19.33-7.34,8.49-11.54,7.15-20-.3-28-24.57-43.34-54.59-48.16-91.29-2.32-17.66-8.3-34.81-12.12-52.3-1.18-5.39-2.33-7.88-8.76-6.59-21.67,4.34-43.51,7.94-65.67,8.47-8.09.19-6.67,5.7-6.83,10.45-1.51,43.83-3.13,87.65-4.3,131.48-.2,7.55-1.37,11.57-10.23,10.19-10.59-1.65-25,3.61-31-3.3-5.1-5.86-1.17-19.78-.83-30.12q8.39-251.7,17.07-503.38c.28-8.12-1.86-13.83-7.44-19.78q-283-302.27-565.69-604.87c-17.48-18.7-37-35.92-45.84-61.08l1-30.05c8.19-17.91,17.8-34.53,36.65-43.63,5.06-2.44,11.34-2.4,15.22-7.28Zm859.63,713.55-13.64-.46c-72.18-2.43-144.36-5-216.55-7.06-9.16-.26-15.38-3.09-21.31-9.88-12.63-14.45-25.86-28.4-39.26-42.15-8.64-8.86-16-25.22-26.13-24.64-9.71.56-18.27,15.45-28,23.21-6.44,5.14-5.35,8.25-.2,13.59,20,20.73,39.28,42.15,59.3,62.85,5.93,6.13,8.35,12.14,8,20.84-2.83,73-4.85,146-7.88,219-.46,11.09,2.46,12.74,12.63,11.77a317.91,317.91,0,0,0,74.36-15.82C2566.87,2483.24,2649.15,2379.48,2656.42,2269.81Zm-873.68-671.29a23.67,23.67,0,0,0-19.26,11.33c-5.17,8.12-5.37,16.67-.28,24.8,2.62,4.19,6.21,7.82,9.62,11.47q239.09,255.81,478.25,511.56c8,8.52,15.75,22.92,24.43,23.56,9.77.72,17.29-14.74,26.85-21.83,8.13-6,6.82-10.09.37-17q-159-169.44-317.55-339.37-89.83-96.09-179.63-192.21C1799.71,1604.64,1793.72,1599,1782.74,1598.53Zm760.17,1014.85-1.14-2.23c-10.12-20.08-20.36-40.09-30.25-60.28-2.07-4.23-4.49-4.13-7.89-2.49a276.13,276.13,0,0,1-40.68,15.78c-4.41,1.32-6,3.11-4.77,8,5.38,21.39,10.44,42.87,15.44,64.36,1.12,4.81,2.52,7.16,8.26,5.11a514.5,514.5,0,0,0,56.44-23.45C2540.24,2617.25,2543.62,2617.08,2542.91,2613.38Zm210.89-226.79c2.07-6.67-2.25-6.21-4.53-6.93-21-6.65-42.17-12.86-63.1-19.77-5.46-1.8-7.1-.29-9.11,4.47-5.16,12.24-10.37,24.55-16.81,36.14-3.7,6.66-1.09,8.34,4.16,10.87,18.35,8.84,36.74,17.65,54.7,27.25,6.64,3.55,9.32,1.78,12.09-4.17,5.08-10.93,10.71-21.59,15.92-32.46C2749.81,2396.37,2752.09,2390.56,2753.8,2386.58Zm-386,235.24c-.39,11.65-.4,23.33-1.33,34.94-.52,6.54,1.89,7.77,7.69,7.18,17.8-1.8,35.44-4.4,53-7.7,6.86-1.29,6.5-3.93,5.15-9.13-3.73-14.47-7-29.05-10.48-43.58-2-8.45-1.69-19.2-6.88-24.69-5.8-6.13-16.4.29-24.95.25-3.74,0-7.5.55-11.23.37-7.13-.35-10.42,2-10.11,9.91C2369.11,2600.16,2368.16,2611,2367.8,2621.82Zm373.42-349.17c-3.74-.13-7.48-.43-11.22-.34-9.86.24-21.72-4.68-29,.88-6.41,4.9-2.84,17.29-5.09,26.15-.92,3.61-1.16,7.4-2.1,11-1.3,5,.15,7.25,5.43,8.79,21.09,6.16,42,12.81,63,19.53,5.1,1.64,7.82,2,9.51-4.64,4.43-17.31,8.23-34.71,11.2-52.33,1-6-.46-8.07-6.79-8C2764.5,2273.8,2752.86,2273,2741.22,2272.66Zm-40,208c1.33-3.82-1.41-4-3-4.78q-30.57-15.36-61.2-30.59c-1.91-1-4-1.63-5.65.35-7.31,8.51-14.71,17-21.8,25.65-2.26,2.77,1,4.39,2.51,6,14.41,15.58,29.06,30.94,43.34,46.63,3.62,4,5.7,4.29,9.56.15,11.91-12.8,23.24-26.07,33.87-39.93C2699.86,2482.84,2700.72,2481.42,2701.22,2480.69Zm-124.84,21.91-5.22,3.88c-6.36,4.7-12.49,9.78-19.17,14-5,3.16-5.24,6-2.62,11q14.46,27.62,28.07,55.68c2.59,5.32,4.71,6.89,9.91,2.8q17.67-13.9,36-27c5.23-3.73,4.58-6.17.46-10.42-14.2-14.68-28-29.78-41.93-44.69C2580.17,2506.06,2578.3,2504.43,2576.38,2502.6Z" transform="translate(-895 -1435)"/></svg>