<svg xmlns="http://www.w3.org/2000/svg" viewBox="0 0 1680.46 1291.85"><defs><style>.cls-1{fill:#fff;}.cls-2{fill:#909090;}.cls-3{fill:none;}</style></defs><title>Ресурс 1</title><g id="Слой_2" data-name="Слой 2"><g id="Слой_1-2" data-name="Слой 1"><path class="cls-1" d="M1498.49,24.62H1327.17a23,23,0,0,1,23,23v782.9a27.07,27.07,0,0,1-27.07,27.07H158.93V965.93h1362.6V47.65A23,23,0,0,0,1498.49,24.62Z"/><path class="cls-2" d="M260.68,792.14V140.35a14,14,0,0,1,14-14H1405.8a14,14,0,0,1,14,14V792.14a14,14,0,0,1-14,14H274.66A14,14,0,0,1,260.68,792.14Z"/><path class="cls-2" d="M1405.8,126.37h-55.59V726.59a14,14,0,0,1-14,14H260.68v51.58a14,14,0,0,0,14,14H1405.8a14,14,0,0,0,14-14V140.35A14,14,0,0,0,1405.8,126.37Z"/><path class="cls-3" d="M1623.86,1267.23H56.6a32,32,0,0,1-32-32V1172.8H1655.84v62.45A32,32,0,0,1,1623.86,1267.23Z"/><polygon class="cls-3" points="1655.84 1172.8 24.62 1172.8 158.93 907.88 1521.53 907.88 1655.84 1172.8"/><path class="cls-1" d="M1056.18,1172.8l-32.13-116.5a21.74,21.74,0,0,0-21-16H677.36a21.74,21.74,0,0,0-21,16l-32.13,116.5Z"/><path class="cls-2" d="M1680.38,1171.27c0-.25,0-.49,0-.74a24.1,24.1,0,0,0-.43-2.87c0-.09,0-.18-.07-.28a23.85,23.85,0,0,0-.72-2.52c-.08-.22-.16-.43-.24-.65q-.41-1.12-.93-2.18c-.06-.12-.1-.25-.16-.38L1546.14,902V47.65A47.71,47.71,0,0,0,1498.49,0H182a47.71,47.71,0,0,0-47.65,47.65V902L2.66,1161.67c-.06.12-.1.25-.16.38-.34.71-.65,1.43-.93,2.17-.08.22-.16.43-.24.65a25,25,0,0,0-.72,2.53c0,.09,0,.18-.07.27a24.26,24.26,0,0,0-.43,2.87c0,.24,0,.49,0,.73,0,.52-.08,1-.08,1.54v62.45a56.66,56.66,0,0,0,56.6,56.6H1623.86a56.66,56.66,0,0,0,56.6-56.6V1172.8C1680.46,1172.28,1680.41,1171.78,1680.38,1171.27ZM183.55,49.24H1496.91v834H183.55ZM174,932.49H1506.41l109.35,215.69H1074.93l-27.15-98.43a46.48,46.48,0,0,0-44.69-34H677.36a46.48,46.48,0,0,0-44.69,34l-27.15,98.43H64.69Zm849.81,215.7H656.6l23-83.23h321.36Zm607.37,87.06a7.37,7.37,0,0,1-7.37,7.37H56.6a7.37,7.37,0,0,1-7.37-7.37v-37.83h1582Z"/><path class="cls-3" d="M1419.78,507.27a24.61,24.61,0,0,0-24.62,24.62V781.51H285.29V531.89a24.62,24.62,0,1,0-49.23,0V792.14a38.64,38.64,0,0,0,38.6,38.6H1405.8a38.64,38.64,0,0,0,38.6-38.6V531.89A24.62,24.62,0,0,0,1419.78,507.27Z"/><path class="cls-3" d="M1405.8,101.75H274.66a38.64,38.64,0,0,0-38.6,38.6V400.61a24.62,24.62,0,0,0,49.23,0V151H1395.16V400.61a24.62,24.62,0,0,0,49.23,0V140.35A38.64,38.64,0,0,0,1405.8,101.75Z"/></g></g></svg>