<?xml version="1.0" encoding="utf-8"?>
<!-- Generator: Adobe Illustrator 16.0.3, SVG Export Plug-In . SVG Version: 6.00 Build 0)  -->
<!DOCTYPE svg PUBLIC "-//W3C//DTD SVG 1.1//EN" "http://www.w3.org/Graphics/SVG/1.1/DTD/svg11.dtd">
<svg version="1.1" id="Layer_1" xmlns="http://www.w3.org/2000/svg" xmlns:xlink="http://www.w3.org/1999/xlink" x="0px" y="0px"
	 width="267.247px" height="83.064px" viewBox="0 0 267.247 83.064" enable-background="new 0 0 267.247 83.064"
	 xml:space="preserve">
<g>
	<polygon fill="#63605D" points="233.956,69.034 231.986,71.32 234.865,74.251 234.567,71.709 	"/>
	<g>
		<polygon fill="#FFFFFF" points="69.695,44.096 76.956,28.516 81.502,28.516 77.848,20.721 72.747,20.721 54.598,59.693 
			62.429,59.693 66.066,51.896 92.505,51.896 88.819,44.096 		"/>
		<polygon fill="#FF0600" points="107.172,83.065 114.951,83.065 85.767,20.721 77.848,20.721 		"/>
		<path fill="#FFFFFF" d="M200.073,20.721h-13.018l-18.151,38.973h7.829l3.637-7.797h26.351l3.718,7.797h7.781L200.073,20.721z
			 M184,44.096l7.26-15.58h4.619l7.299,15.58H184z"/>
		<path fill="#FFFFFF" d="M42.477,20.711H18.183L0,59.712h7.729l14.552-31.206h20.456c2.146,0,4.026,1.471,4.026,3.895
			c0,2.152-1.62,3.908-3.767,3.908H28.079l10.949,23.403h7.742l-7.242-15.608h3.724c6.451,0,11.302-5.238,11.302-11.703
			C54.554,25.405,48.926,20.711,42.477,20.711z"/>
		<polygon fill="#FFFFFF" points="175.504,28.51 179.324,20.724 137.709,20.724 123.168,51.867 118.463,51.867 122.098,59.646 
			127.299,59.646 141.872,28.51 153.293,28.51 153.295,59.693 161.093,59.693 161.018,28.51 		"/>
		<polygon fill="#FF0600" points="94.251,0 86.413,0 114.326,59.646 122.098,59.646 		"/>
	</g>
	<rect x="221.954" y="54.471" fill="#FFFFFF" width="5.191" height="5.189"/>
	<path fill="#FFFFFF" d="M261.732,51.864c-0.08,0.438-0.274,0.962-0.726,1.376c-0.451,0.416-1.135,0.679-2.053,0.678h-2.984
		c-0.531,0.001-0.989-0.107-1.369-0.297c-0.379-0.19-0.672-0.462-0.887-0.766c-0.426-0.606-0.553-1.304-0.594-1.854l-0.002-0.018
		V50.36V38.873h-5.494v14.008c0,1.894,0.732,3.6,1.914,4.832c1.184,1.233,2.803,1.989,4.596,1.989h6.77l0.046-0.004h0.009
		c1.743-0.066,3.307-0.843,4.441-2.068c1.134-1.228,1.835-2.899,1.837-4.749V38.933h-5.496V51.82L261.732,51.864z"/>
	<path fill="#FFFFFF" d="M236.459,46.937l0.004-0.031c0.062-0.445,0.233-0.987,0.673-1.43c0.438-0.443,1.124-0.738,2.056-0.758
		h0.007h5.398v-5.781h-7c-1.822,0-3.472,0.767-4.677,2.02c-1.203,1.251-1.951,2.984-1.957,4.915v13.832h5.496V46.937z"/>
	<g>
		<path fill="#CACACA" d="M9.059,77.842l0.089-9.251c0-0.195,0.043-0.34-0.134-0.34c-0.045,0-0.134,0.052-0.312,0.34l-5.185,8.367
			c-0.424,0.688-0.801,1.034-1.691,1.034c-1.538,0-1.715-1.156-1.715-1.843V64.838h2.515l-0.022,9.251c0,0.22,0,0.343,0.18,0.343
			c0.131,0,0.221-0.193,0.31-0.343l5.253-8.512c0.47-0.739,1.068-0.886,1.604-0.886c0.354,0,1.709,0.051,1.709,1.989v11.16
			L9.059,77.842L9.059,77.842z"/>
		<path fill="#CACACA" d="M21.371,77.842v-5.595H15.74v5.595h-2.604V64.838h2.604v5.2h5.631v-5.2h2.604v13.004H21.371z"/>
		<path fill="#CACACA" d="M28.988,77.842V67.048H24.56v-2.21h11.461v2.21h-4.43v10.794H28.988z"/>
		<path fill="#CACACA" d="M40.743,77.842c-1.202,0-2.626-0.122-3.603-1.645c-0.778-1.226-0.848-3.02-0.848-4.733
			c0-2.431,0.111-4.222,1.404-5.444c1.29-1.229,3.292-1.229,4.404-1.229c1.38,0,2.805,0.069,3.896,0.834
			c1.379,0.961,1.667,2.577,1.667,4.22c0,0.661-0.064,1.422-0.556,1.961c-0.356,0.396-0.802,0.494-1.269,0.494h-6.854
			c0,0.566,0.067,1.399,0.154,1.791c0.335,1.398,1.425,1.548,2.383,1.548h5.762v2.205L40.743,77.842L40.743,77.842z M44.395,70.091
			c0.511,0,0.576-0.416,0.576-0.761c0-0.809-0.378-1.425-0.755-1.743C43.569,67.048,42.724,67,41.989,67
			c-0.688,0-1.757-0.025-2.472,0.853c-0.531,0.67-0.509,1.38-0.531,2.238H44.395L44.395,70.091z"/>
		<path fill="#CACACA" d="M51.431,83.008h-2.604V66.852c0-0.858,0.378-1.348,0.668-1.595c0.444-0.365,1.023-0.419,1.469-0.419h4.118
			c0.757,0,2.336,0.126,3.472,1.426c1.201,1.374,1.246,3.387,1.246,4.806c0,1.719-0.089,3.586-0.937,4.908
			c-1.112,1.768-2.938,1.864-4.139,1.864H51.43L51.431,83.008L51.431,83.008z M54.392,75.637c1.29,0,1.935-0.688,2.225-1.205
			c0.243-0.391,0.489-1.178,0.489-3.115c0-1.771-0.177-2.453-0.312-2.794c-0.333-0.838-1.112-1.475-2.269-1.475h-2.56
			c-0.113,0-0.269,0.098-0.356,0.174c-0.135,0.145-0.179,0.292-0.179,0.438v7.979L54.392,75.637L54.392,75.637z"/>
		<path fill="#CACACA" d="M69.194,77.842v-5.595h-5.628v5.595h-2.604V64.838h2.604v5.2h5.628v-5.2H71.8v13.004H69.194z"/>
		<path fill="#CACACA" d="M77.413,77.842c-1.2,0-2.625-0.122-3.604-1.645c-0.78-1.226-0.849-3.02-0.849-4.733
			c0-2.431,0.114-4.222,1.403-5.444c1.291-1.229,3.294-1.229,4.407-1.229c1.38,0,2.804,0.069,3.896,0.834
			c1.379,0.961,1.668,2.577,1.668,4.22c0,0.661-0.065,1.422-0.557,1.961c-0.355,0.396-0.801,0.494-1.269,0.494h-6.854
			c0,0.566,0.067,1.399,0.155,1.791c0.335,1.398,1.425,1.548,2.382,1.548h5.763v2.205L77.413,77.842L77.413,77.842z M81.064,70.091
			c0.511,0,0.577-0.416,0.577-0.761c0-0.809-0.379-1.425-0.756-1.743C80.241,67.048,79.395,67,78.66,67
			c-0.689,0-1.758-0.025-2.47,0.853c-0.534,0.67-0.511,1.38-0.534,2.238H81.064L81.064,70.091z"/>
		<path fill="#CACACA" d="M89.035,77.842V67.048h-4.427v-2.21h11.461v2.21h-4.428v10.794H89.035z"/>
	</g>
	<g>
		<path fill="#CACACA" d="M116.849,77.901V66.957c0-0.517,0-1.033,0.275-1.452c0.401-0.621,1.024-0.69,1.574-0.69h7.648v2.217
			h-5.772c-0.25,0-0.478,0.13-0.602,0.25c-0.223,0.227-0.2,0.47-0.2,0.791v9.829L116.849,77.901L116.849,77.901z"/>
		<path fill="#CACACA" d="M138.118,77.901l0.098-9.312c0-0.2,0.053-0.345-0.148-0.345c-0.048,0-0.146,0.049-0.352,0.345
			l-5.821,8.418c-0.475,0.694-0.899,1.036-1.898,1.036c-1.726,0-1.927-1.159-1.927-1.848V64.814h2.926l-0.125,9.305
			c0,0.227,0,0.347,0.2,0.347c0.151,0,0.249-0.194,0.35-0.347l5.897-8.563c0.526-0.74,1.199-0.893,1.799-0.893
			c0.402,0,1.926,0.053,1.926,2.002v11.236H138.118z"/>
		<path fill="#CACACA" d="M152.639,64.814c0.674,0,1.324,0.053,1.822,0.643c0.4,0.468,0.426,0.96,0.426,1.528v10.916h-2.924v-10.1
			c0-0.175,0-0.471-0.176-0.616c-0.125-0.102-0.375-0.153-0.523-0.153h-4.949c-0.251,0-0.425,0.081-0.502,0.153
			c-0.121,0.118-0.198,0.392-0.198,0.616v10.101h-2.925V66.985c0-0.469-0.023-0.986,0.451-1.528
			c0.576-0.643,1.225-0.643,1.798-0.643H152.639z"/>
		<path fill="#CACACA" d="M161.185,77.901c-1.351,0-2.95-0.123-4.05-1.654c-0.875-1.236-0.952-3.042-0.952-4.769
			c0-2.443,0.127-4.244,1.577-5.479c1.449-1.232,3.699-1.232,4.945-1.232c1.553,0,3.154,0.071,4.377,0.838
			c1.549,0.961,1.873,2.588,1.873,4.247c0,0.666-0.072,1.432-0.623,1.977c-0.4,0.396-0.899,0.491-1.425,0.491h-7.698
			c0,0.57,0.073,1.407,0.174,1.801c0.375,1.412,1.604,1.558,2.677,1.558h6.474v2.226h-7.349V77.901z M165.284,70.097
			c0.576,0,0.648-0.419,0.648-0.765c0-0.818-0.423-1.435-0.85-1.757c-0.726-0.545-1.677-0.591-2.5-0.591
			c-0.773,0-1.974-0.027-2.775,0.864c-0.598,0.664-0.572,1.384-0.598,2.247L165.284,70.097L165.284,70.097z"/>
		<path fill="#CACACA" d="M173.181,82.933h-2.929V66.839c0-0.863,0.43-1.361,0.75-1.607c0.504-0.364,1.152-0.417,1.651-0.417h4.624
			c0.85,0,2.625,0.118,3.9,1.431c1.349,1.382,1.396,3.405,1.396,4.839c0,1.729-0.1,3.605-1.05,4.938
			c-1.248,1.78-3.298,1.879-4.646,1.879h-3.699L173.181,82.933L173.181,82.933z M176.504,75.676c1.449,0,2.175-0.69,2.498-1.211
			c0.277-0.393,0.55-1.186,0.55-3.134c0-1.781-0.198-2.469-0.349-2.817c-0.375-0.838-1.25-1.482-2.551-1.482h-2.873
			c-0.126,0-0.302,0.1-0.4,0.175c-0.147,0.148-0.198,0.302-0.198,0.444v8.025H176.504z"/>
		<path fill="#CACACA" d="M193.823,76.958c-0.199,0.522-0.648,1.086-1.701,1.086c-1.048,0-1.496-0.563-1.697-1.086l-3.4-8.493
			c-0.021-0.075-0.1-0.273-0.2-0.273c-0.149,0-0.149,0.155-0.149,0.229l0.125,9.481h-2.924V66.542c0-1.284,1.074-1.879,2.273-1.879
			c1.102,0,1.827,0.347,2.25,1.409l3.35,8.319c0.051,0.124,0.248,0.521,0.375,0.521s0.325-0.396,0.377-0.521l3.347-8.319
			c0.428-1.063,1.151-1.409,2.252-1.409c1.2,0,2.274,0.595,2.274,1.879v11.359h-2.925l0.122-9.481c0-0.147-0.097-0.247-0.146-0.247
			c-0.075,0-0.176,0.194-0.226,0.293L193.823,76.958z"/>
		<path fill="#CACACA" d="M210.168,64.814c1.125,0,2.148,0.392,2.75,1.006c0.549,0.571,0.976,1.634,0.976,3.092V75.7
			c0,0.469-0.051,1.209-0.526,1.681c-0.474,0.466-1.201,0.521-1.824,0.521h-6.325c-0.726,0-1.648,0-2.396-0.646
			c-1.077-0.913-1.149-2.595-1.149-3.555c0-1.159,0.125-2.321,1.125-3.186c0.824-0.713,1.723-0.767,2.422-0.767h5.752v-0.914
			c0-0.396-0.051-0.838-0.377-1.233c-0.398-0.491-0.975-0.571-1.424-0.571h-6.523v-2.217H210.168z M206.094,71.977
			c-0.2,0-0.752,0.021-1.075,0.44c-0.099,0.125-0.325,0.472-0.325,1.41c0,0.389,0.051,1.085,0.399,1.45
			c0.2,0.198,0.575,0.397,0.95,0.397h4.072c0.178,0,0.454,0,0.65-0.146c0.202-0.174,0.202-0.349,0.202-0.546v-3.009h-4.874V71.977z"
			/>
		<path fill="#CACACA" d="M218.465,82.889h-2.926v-16.05c0-0.863,0.426-1.361,0.75-1.607c0.498-0.364,1.148-0.417,1.651-0.417h4.622
			c0.85,0,2.625,0.118,3.898,1.431c1.351,1.382,1.398,3.405,1.398,4.839c0,1.729-0.099,3.605-1.049,4.938
			c-1.25,1.78-3.3,1.879-4.646,1.879h-3.701v4.987H218.465z M221.79,75.676c1.448,0,2.174-0.69,2.498-1.211
			c0.274-0.393,0.551-1.186,0.551-3.134c0-1.781-0.199-2.469-0.351-2.817c-0.376-0.838-1.25-1.482-2.551-1.482h-2.872
			c-0.125,0-0.304,0.1-0.402,0.175c-0.146,0.148-0.197,0.302-0.197,0.444v8.025H221.79z"/>
		<path fill="#CACACA" d="M229.161,77.901V64.814h2.924v13.087H229.161z M235.213,71.135l6.545,6.767h-3.523l-4.826-5.212
			c-0.298-0.322-0.75-0.862-0.75-1.531c0-0.668,0.551-1.285,0.928-1.701l4.224-4.643h3.474L235.213,71.135z"/>
		<path fill="#CACACA" d="M246.305,77.901c-1.352,0-2.95-0.123-4.049-1.654c-0.875-1.236-0.95-3.042-0.95-4.769
			c0-2.443,0.125-4.244,1.577-5.479c1.447-1.232,3.693-1.232,4.945-1.232c1.551,0,3.151,0.071,4.375,0.838
			c1.551,0.961,1.875,2.588,1.875,4.247c0,0.666-0.074,1.432-0.627,1.977c-0.396,0.396-0.897,0.491-1.425,0.491h-7.696
			c0,0.57,0.075,1.407,0.174,1.801c0.377,1.412,1.601,1.558,2.675,1.558h6.475v2.226h-7.349V77.901z M250.404,70.097
			c0.576,0,0.649-0.419,0.649-0.765c0-0.818-0.426-1.435-0.85-1.757c-0.725-0.545-1.676-0.591-2.5-0.591
			c-0.776,0-1.975-0.027-2.775,0.864c-0.598,0.664-0.572,1.384-0.598,2.247L250.404,70.097L250.404,70.097z"/>
		<path fill="#CACACA" d="M259.351,77.901v-10.87h-4.974v-2.217h12.869v2.217h-4.973v10.87H259.351z"/>
	</g>
</g>
</svg>
