<svg xmlns="http://www.w3.org/2000/svg" viewBox="0 0 496 296.09"><defs><style>.cls-1{fill:#bab6b8;}.cls-2{fill:#ffce54;}</style></defs><title>oil-icon</title><g id="Слой_2" data-name="Слой 2"><g id="масленка"><path class="cls-1" d="M344,0a8,8,0,0,1,8,8v8a8,8,0,0,1-8,8H264a8,8,0,0,1-8-8V8a8,8,0,0,1,8-8Z"/><path class="cls-1" d="M320,31.9H288V24h32Z"/><path class="cls-1" d="M400,127.9h16A55.89,55.89,0,0,0,472,72l-.08-.08a23.92,23.92,0,0,0-47.84,0A24.1,24.1,0,0,1,400,96h-.08V71.9H400a48,48,0,0,1,96,0V72a79.91,79.91,0,0,1-80,79.92H400V152h-.08V127.9Z"/><path class="cls-1" d="M48,24,191.92,71.9,240,31.9H383.92a16,16,0,0,1,16,16V152H400a16,16,0,0,1-16.08,16h-176L48,56,32,64,16,48,48,24.06Z"/><path class="cls-2" d="M32,87.9S64,118.3,64,136a32,32,0,0,1-64,0C0,118.3,32,87.9,32,87.9Z"/><path class="cls-1" d="M55.16,281.8H48.65V248.7H31.11v33.1H24.59V243.08H55.16Z"/><path class="cls-1" d="M98.58,262.46q0,9.78-4.71,15.1a16,16,0,0,1-12.55,5.32q-8.08,0-12.71-5.5T64,262.46q0-9.7,4.76-15.08A16,16,0,0,1,81.32,242a15.9,15.9,0,0,1,12.55,5.36Q98.58,252.72,98.58,262.46Zm-6.72,0q0-7.53-2.74-11.18a9.17,9.17,0,0,0-7.8-3.66,9.23,9.23,0,0,0-7.85,3.66q-2.76,3.66-2.76,11.18,0,7.28,2.76,11a9.13,9.13,0,0,0,7.85,3.76,9.13,9.13,0,0,0,7.78-3.69Q91.86,269.88,91.86,262.46Z"/><path class="cls-1" d="M140.62,291.09h-6.07V281.7H109v9.39H103V276.26h2.56a49.39,49.39,0,0,0,5.39-14.13,81.27,81.27,0,0,0,2.1-19h23.75v33.18h3.85Zm-10.37-14.83v-27.7H119.16a75.74,75.74,0,0,1-2.38,15.82A44.73,44.73,0,0,1,112,276.26Z"/><path class="cls-1" d="M176.62,248.8a15.47,15.47,0,0,1,3.5,5.81,24.38,24.38,0,0,1,1.25,8.16A23.58,23.58,0,0,1,180,271a19.11,19.11,0,0,1-3.85,6.4,17.16,17.16,0,0,1-5.53,4.07,15.93,15.93,0,0,1-6.61,1.37,17.05,17.05,0,0,1-6.67-1.27,13.06,13.06,0,0,1-5.18-3.9,21.93,21.93,0,0,1-4-8.25,47.94,47.94,0,0,1-1.33-12.27c0-1.73.07-3.5.22-5.29a56.56,56.56,0,0,1,1-6.43,35.25,35.25,0,0,1,1.87-6.19,15.29,15.29,0,0,1,3.09-4.83,17.27,17.27,0,0,1,6.43-4.09,39.8,39.8,0,0,1,10.52-2.12c1.55-.14,3.21-.27,5-.4l4-.29v6c-1.21.06-2.49.15-3.85.26l-4.68.36a43.89,43.89,0,0,0-7.32,1.23,11.8,11.8,0,0,0-5.75,3,10.46,10.46,0,0,0-2.32,4.27,31.07,31.07,0,0,0-1.22,6.17,28.81,28.81,0,0,1,5.5-3.1,15.65,15.65,0,0,1,6.32-1.27,16.92,16.92,0,0,1,6,1.06A13.45,13.45,0,0,1,176.62,248.8Zm-1.87,14.35q0-6.16-2.78-9.46t-7.9-3.3a16.21,16.21,0,0,0-5.44.94,22,22,0,0,0-5,2.5c0,.57-.1,1.26-.14,2.06s-.07,1.52-.07,2.17a40.44,40.44,0,0,0,1,9.81,15.73,15.73,0,0,0,2.7,5.93,8.73,8.73,0,0,0,3.3,2.68,9.38,9.38,0,0,0,3.78.75,9.08,9.08,0,0,0,7.76-3.78Q174.75,269.67,174.75,263.15Z"/><path class="cls-1" d="M222.19,262.46q0,9.78-4.72,15.1a16,16,0,0,1-12.55,5.32q-8.07,0-12.7-5.5t-4.63-14.92q0-9.7,4.77-15.08a17.36,17.36,0,0,1,25.11,0Q222.18,252.72,222.19,262.46Zm-6.73,0q0-7.53-2.74-11.18a9.15,9.15,0,0,0-7.8-3.66,9.25,9.25,0,0,0-7.85,3.66q-2.76,3.66-2.76,11.18,0,7.28,2.76,11a10.06,10.06,0,0,0,15.63.07Q215.46,269.88,215.46,262.46Z"/><path class="cls-1" d="M263.49,261.42q0,9.68-4.63,15.41a14.41,14.41,0,0,1-11.7,5.74,17.85,17.85,0,0,1-5.09-.66,19.66,19.66,0,0,1-4.54-2.05v16.23H231v-53h6.52v4.06a23.5,23.5,0,0,1,5.39-3.66,14.33,14.33,0,0,1,6.46-1.48,12,12,0,0,1,10.38,5.27Q263.5,252.55,263.49,261.42Zm-6.72.73q0-6.63-2.12-10.28t-6.86-3.66a12.33,12.33,0,0,0-5.36,1.23,23.14,23.14,0,0,0-4.9,3.17v21.95a23.3,23.3,0,0,0,4.38,1.7,17.5,17.5,0,0,0,4.18.45A9.31,9.31,0,0,0,254,273Q256.77,269.29,256.77,262.15Z"/><path class="cls-1" d="M332.62,281.8h-6.45V251.36l-9.29,19.77H312l-9.22-19.77V281.8h-6.1V243.08h7.87l10.19,21.49,9.85-21.49h8Z"/><path class="cls-1" d="M365.81,277.68c-.53.39-1.24.94-2.13,1.64a14.8,14.8,0,0,1-2.59,1.69,19.09,19.09,0,0,1-3.34,1.38,16.24,16.24,0,0,1-4.53.49,11.64,11.64,0,0,1-4.54-.9,11.11,11.11,0,0,1-6.27-6.47,14.13,14.13,0,0,1,.76-11.79,11.52,11.52,0,0,1,5.37-4.48,26.52,26.52,0,0,1,7.7-2.07q4.44-.57,9.57-.85v-1.25a8.28,8.28,0,0,0-.7-3.69,5,5,0,0,0-1.94-2.16,7.45,7.45,0,0,0-3.05-1.06,26.45,26.45,0,0,0-3.71-.26,24.94,24.94,0,0,0-5.3.67,36.62,36.62,0,0,0-6.1,2h-.38v-6.62c1.2-.34,2.92-.73,5.16-1.14a36.08,36.08,0,0,1,6.66-.63,30.43,30.43,0,0,1,6.72.63A12.82,12.82,0,0,1,368.1,245a9.6,9.6,0,0,1,3.15,4.13,16.27,16.27,0,0,1,1,6.17V281.8h-6.48Zm0-5.41V261.52q-2.32.21-5.88.57a32.27,32.27,0,0,0-5.74,1,10.39,10.39,0,0,0-4.29,2.44,6.08,6.08,0,0,0-1.7,4.6,6.43,6.43,0,0,0,1.87,5,7.91,7.91,0,0,0,5.48,1.7,11.67,11.67,0,0,0,5.58-1.33A24.69,24.69,0,0,0,365.81,272.27Z"/><path class="cls-1" d="M399,282.67a21,21,0,0,1-7.32-1.23,15,15,0,0,1-5.72-3.73,17,17,0,0,1-3.71-6.29,27.23,27.23,0,0,1-1.32-8.93,25.5,25.5,0,0,1,1.37-8.8,18.88,18.88,0,0,1,3.66-6.24,15.17,15.17,0,0,1,5.7-3.9,19.4,19.4,0,0,1,7.34-1.37,21.09,21.09,0,0,1,6.15.9,32.23,32.23,0,0,1,5.29,2.08v7.31H410c-.47-.39-1.06-.84-1.79-1.35a22.43,22.43,0,0,0-2.65-1.56,17.92,17.92,0,0,0-3.19-1.21,12.91,12.91,0,0,0-3.54-.52,9.92,9.92,0,0,0-8.13,3.83q-3.06,3.83-3.07,10.83t3,10.7a9.82,9.82,0,0,0,8.23,3.83,14.39,14.39,0,0,0,6.07-1.32,18.86,18.86,0,0,0,5.1-3.4h.38v7.32L408,280.71a16.83,16.83,0,0,1-2.64,1c-1.1.33-2.1.58-3,.75A18.3,18.3,0,0,1,399,282.67Z"/><path class="cls-1" d="M448.45,281.8h-6.52V248.56H428.62c-.07,1.92-.14,3.76-.21,5.53s-.13,3.36-.2,4.8q-.21,5.44-.71,9.12a32.3,32.3,0,0,1-1.27,5.89,13.88,13.88,0,0,1-1.68,3.57,14.73,14.73,0,0,1-2.06,2.32,8.08,8.08,0,0,1-2.54,1.56,8.34,8.34,0,0,1-3.05.52l-1.42,0-1.21,0v-5.68h.35l.5,0a3.59,3.59,0,0,0,.61,0,5.38,5.38,0,0,0,1.63-.25,3.24,3.24,0,0,0,1.42-.9c1.15-1.13,2-3.11,2.53-5.94a90.58,90.58,0,0,0,1.14-11.88q.14-2.84.26-6.72t.23-7.42h25.51Z"/><path class="cls-1" d="M481.65,277.68c-.54.39-1.25.94-2.14,1.64a15.12,15.12,0,0,1-2.58,1.69,19.17,19.17,0,0,1-3.35,1.38,16.11,16.11,0,0,1-4.52.49,11.64,11.64,0,0,1-4.54-.9,11.84,11.84,0,0,1-3.78-2.53,12,12,0,0,1-2.5-3.94,13.26,13.26,0,0,1-.93-4.94,13,13,0,0,1,1.7-6.85,11.52,11.52,0,0,1,5.37-4.48,26.43,26.43,0,0,1,7.7-2.07q4.43-.57,9.57-.85v-1.25a8.42,8.42,0,0,0-.7-3.69,5.1,5.1,0,0,0-1.94-2.16,7.45,7.45,0,0,0-3.05-1.06,26.45,26.45,0,0,0-3.71-.26,24.94,24.94,0,0,0-5.3.67,37,37,0,0,0-6.11,2h-.38v-6.62c1.2-.34,2.93-.73,5.17-1.14a36.05,36.05,0,0,1,6.65-.63,30.59,30.59,0,0,1,6.73.63,12.71,12.71,0,0,1,4.92,2.25,9.7,9.7,0,0,1,3.16,4.13,16.27,16.27,0,0,1,1,6.17V281.8h-6.48Zm0-5.41V261.52q-2.32.21-5.88.57a32.27,32.27,0,0,0-5.74,1,10.42,10.42,0,0,0-4.3,2.44,6.12,6.12,0,0,0-1.7,4.6,6.44,6.44,0,0,0,1.88,5,7.88,7.88,0,0,0,5.47,1.7,11.62,11.62,0,0,0,5.58-1.33A24.45,24.45,0,0,0,481.65,272.27Z"/></g></g></svg>