<svg xmlns="http://www.w3.org/2000/svg" viewBox="0 0 512 362.64"><defs><style>.cls-1{fill:#909090;}</style></defs><title>Ресурс 1</title><g id="Слой_2" data-name="Слой 2"><g id="Слой_1-2" data-name="Слой 1"><path class="cls-1" d="M31.33,0A31.37,31.37,0,0,0,0,31.33V302.65A31.37,31.37,0,0,0,31.33,334h13v13.66a15,15,0,0,0,30,0V334H363V0ZM280.68,281.87H82.34a45.28,45.28,0,0,1-45.23-45.22V97.34A45.28,45.28,0,0,1,82.34,52.11H280.68A45.28,45.28,0,0,1,325.9,97.34V236.65A45.27,45.27,0,0,1,280.68,281.87Z"/><path class="cls-1" d="M480.67,0H393V334h44.7v13.66a15,15,0,0,0,30,0V334h13A31.37,31.37,0,0,0,512,302.65V31.33A31.37,31.37,0,0,0,480.67,0ZM452.5,245.71a22.8,22.8,0,1,1,22.8-22.8A22.8,22.8,0,0,1,452.5,245.71Zm0-66.85a22.8,22.8,0,1,1,22.8-22.8A22.8,22.8,0,0,1,452.5,178.86Zm15.2-75.59H437.3a15,15,0,0,1,0-30h30.4a15,15,0,0,1,0,30Z"/><path class="cls-1" d="M280.68,82.11H82.34A15.25,15.25,0,0,0,67.11,97.34V236.65a15.25,15.25,0,0,0,15.23,15.23H280.68a15.24,15.24,0,0,0,15.22-15.23V97.34A15.24,15.24,0,0,0,280.68,82.11Z"/></g></g></svg>