<svg xmlns="http://www.w3.org/2000/svg" viewBox="0 0 1128.79 1128.69"><defs><style>.cls-1{fill:#878787;}</style></defs><title>pay-icon</title><g id="Слой_2" data-name="Слой 2"><g id="Слой_1-2" data-name="Слой 1"><g id="Слой_2-2" data-name="Слой 2"><g id="Слой_1-2-2" data-name="Слой 1-2"><path class="cls-1" d="M1098.83,387.35,741.41,29.92a102.7,102.7,0,0,0-144.91,0L29.92,596.48a102.7,102.7,0,0,0,0,144.91L74,785.47h0l296.22,296.22h-41a23.52,23.52,0,0,0,0,47H799.54a23.52,23.52,0,0,0,0-47H549.39l549.44-549.43A102.59,102.59,0,0,0,1098.83,387.35ZM1065.57,499,499,1065.58a55,55,0,0,1-39.12,16.14h-.18a55.07,55.07,0,0,1-39.1-16.14L123.9,768.86,668,224.75a23.52,23.52,0,0,0-32.56-33.95c-.24.23-.47.46-.7.7L90.64,735.6,63.18,708.14a55.67,55.67,0,0,1,0-78.4L629.75,63.17a55.66,55.66,0,0,1,78.4,0L835.37,190.39,291.25,734.51a23.53,23.53,0,1,0,33.26,33.29L868.63,223.68l197,197a55.52,55.52,0,0,1,0,78.33Z"/><path class="cls-1" d="M579.4,679.16a23.51,23.51,0,0,0-33.26,0l-185,185A23.52,23.52,0,1,0,394,897.81l.39-.39,185-185A23.53,23.53,0,0,0,579.4,679.16Z"/><path class="cls-1" d="M503.5,854.8l-75.9,75.9a23.52,23.52,0,1,0,32.53,34l.7-.69,75.9-75.9A23.52,23.52,0,0,0,503.5,854.8Z"/><path class="cls-1" d="M573.34,785l-10,10a23.51,23.51,0,1,0,33.25,33.26l10-10A23.51,23.51,0,0,0,573.34,785Z"/><path class="cls-1" d="M897.48,361.09a23.51,23.51,0,0,0-33.26,0l-99.77,99.77a23.53,23.53,0,0,0,0,33.26L831,560.63a23.53,23.53,0,0,0,33.26,0L964,460.86a23.53,23.53,0,0,0,0-33.26ZM847.59,510.75l-33.26-33.26L880.83,411l33.26,33.26Z"/><path class="cls-1" d="M706.26,176.8a23.42,23.42,0,0,0,16.63-6.89l10-10A23.52,23.52,0,0,0,700.33,126l-.7.7-10,10a23.52,23.52,0,0,0,16.63,40.14Z"/><path class="cls-1" d="M236.38,789.38l-10,10a23.52,23.52,0,0,0,33.26,33.26l10-10A23.52,23.52,0,0,0,236.77,789Z"/></g></g></g></g></svg>