<svg xmlns="http://www.w3.org/2000/svg" viewBox="0 0 551.56 326.45"><defs><style>.cls-1,.cls-3{fill:#bab6b8;}.cls-2{fill:#fff;}.cls-3{stroke:#fff;stroke-miterlimit:10;stroke-width:10px;}</style></defs><title>payment-icon</title><g id="Слой_2" data-name="Слой 2"><g id="Слой_3" data-name="Слой 3"><path class="cls-1" d="M29.36,326.24A20.88,20.88,0,0,1,22.05,325a15.15,15.15,0,0,1-5.73-3.73,16.89,16.89,0,0,1-3.7-6.29,27.23,27.23,0,0,1-1.32-8.93,25.22,25.22,0,0,1,1.37-8.8A18.87,18.87,0,0,1,16.32,291a15.13,15.13,0,0,1,5.71-3.9,19.35,19.35,0,0,1,7.33-1.37,21,21,0,0,1,6.15.9,32.23,32.23,0,0,1,5.29,2.08V296h-.38c-.46-.39-1.06-.84-1.79-1.35A21.64,21.64,0,0,0,36,293.13a16.91,16.91,0,0,0-3.19-1.21,12.79,12.79,0,0,0-3.53-.52,9.87,9.87,0,0,0-8.13,3.83q-3.07,3.82-3.07,10.83t3,10.7a9.84,9.84,0,0,0,8.24,3.83,14.38,14.38,0,0,0,6.06-1.32,18.86,18.86,0,0,0,5.1-3.4h.38v7.32l-2.43,1.09a18.25,18.25,0,0,1-2.63,1c-1.11.33-2.1.57-3,.75A18.42,18.42,0,0,1,29.36,326.24Z" transform="translate(-11.3)"/><path class="cls-1" d="M79.44,325.37H72.92V292.26H55.38v33.11H48.86V286.65H79.44Z" transform="translate(-11.3)"/><path class="cls-1" d="M122.85,306q0,9.77-4.71,15.09a15.94,15.94,0,0,1-12.55,5.33q-8.07,0-12.7-5.5T88.26,306q0-9.7,4.76-15.08a16,16,0,0,1,12.57-5.38,15.9,15.9,0,0,1,12.55,5.36Q122.85,296.28,122.85,306Zm-6.72,0q0-7.53-2.74-11.18a10.19,10.19,0,0,0-15.65,0Q95,298.49,95,306q0,7.28,2.76,11a10.06,10.06,0,0,0,15.63.07Q116.13,313.45,116.13,306Z" transform="translate(-11.3)"/><path class="cls-1" d="M147.07,326.24a21,21,0,0,1-7.32-1.23,15.19,15.19,0,0,1-5.72-3.73,17,17,0,0,1-3.71-6.29,27.51,27.51,0,0,1-1.31-8.93,25.22,25.22,0,0,1,1.37-8.8A18.87,18.87,0,0,1,134,291a15.13,15.13,0,0,1,5.71-3.9,19.35,19.35,0,0,1,7.33-1.37,21,21,0,0,1,6.15.9,32.23,32.23,0,0,1,5.29,2.08V296h-.38c-.46-.39-1.06-.84-1.79-1.35a22.43,22.43,0,0,0-2.65-1.56,16.91,16.91,0,0,0-3.19-1.21,12.79,12.79,0,0,0-3.53-.52,9.87,9.87,0,0,0-8.13,3.83q-3.08,3.82-3.07,10.83t3,10.7a9.84,9.84,0,0,0,8.24,3.83,14.38,14.38,0,0,0,6.06-1.32,18.86,18.86,0,0,0,5.1-3.4h.38v7.32l-2.43,1.09a18.25,18.25,0,0,1-2.63,1c-1.11.33-2.1.57-3,.75A18.42,18.42,0,0,1,147.07,326.24Z" transform="translate(-11.3)"/><path class="cls-1" d="M198.43,306q0,9.77-4.72,15.09a15.93,15.93,0,0,1-12.55,5.33q-8.07,0-12.7-5.5T163.83,306q0-9.7,4.77-15.08a17.36,17.36,0,0,1,25.11,0Q198.44,296.28,198.43,306Zm-6.73,0q0-7.53-2.74-11.18a9.15,9.15,0,0,0-7.8-3.66,9.24,9.24,0,0,0-7.85,3.66q-2.76,3.64-2.76,11.18,0,7.28,2.76,11a10.07,10.07,0,0,0,15.64.07Q191.7,313.45,191.7,306Z" transform="translate(-11.3)"/><path class="cls-1" d="M234.71,292.37a15.63,15.63,0,0,1,3.5,5.8,24.49,24.49,0,0,1,1.24,8.17,23.36,23.36,0,0,1-1.42,8.27,18.8,18.8,0,0,1-3.85,6.39,17.06,17.06,0,0,1-5.52,4.08,16,16,0,0,1-6.61,1.37,17.2,17.2,0,0,1-6.67-1.27,13.09,13.09,0,0,1-5.19-3.9,22.22,22.22,0,0,1-4-8.25,48,48,0,0,1-1.33-12.27c0-1.74.07-3.5.22-5.29a56.56,56.56,0,0,1,1-6.43,35.25,35.25,0,0,1,1.87-6.19A15.34,15.34,0,0,1,211,278a17.39,17.39,0,0,1,6.43-4.09A40.17,40.17,0,0,1,228,271.81c1.55-.14,3.21-.27,5-.4l4-.29v6c-1.2.07-2.48.16-3.84.26l-4.68.37a43.72,43.72,0,0,0-7.32,1.23,11.72,11.72,0,0,0-5.75,3,10.59,10.59,0,0,0-2.33,4.27,31.09,31.09,0,0,0-1.21,6.17,29.64,29.64,0,0,1,5.49-3.11,15.9,15.9,0,0,1,6.33-1.26,17,17,0,0,1,6,1.06A13.53,13.53,0,0,1,234.71,292.37Zm-1.88,14.35q0-6.17-2.77-9.46t-7.9-3.3a16,16,0,0,0-5.45.94,21.88,21.88,0,0,0-5,2.49c0,.58-.1,1.27-.14,2.07s-.07,1.52-.07,2.16a40.39,40.39,0,0,0,1,9.81,15.65,15.65,0,0,0,2.7,5.93,8.82,8.82,0,0,0,3.29,2.69,9.44,9.44,0,0,0,3.78.74,9.08,9.08,0,0,0,7.77-3.77Q232.83,313.24,232.83,306.72Z" transform="translate(-11.3)"/><path class="cls-1" d="M277.15,313.38a11.35,11.35,0,0,1-1.12,5.09,10,10,0,0,1-3.07,3.71,14.45,14.45,0,0,1-4.89,2.46,25.18,25.18,0,0,1-6.69.73h-13V286.65h6.52v15.08h6.62a39.13,39.13,0,0,1,6.78.45,11.67,11.67,0,0,1,4.8,2.22,9.19,9.19,0,0,1,3,3.81A12.89,12.89,0,0,1,277.15,313.38Zm-6.72.1a7.33,7.33,0,0,0-.61-3.1,4.88,4.88,0,0,0-2-2.17,7.86,7.86,0,0,0-3.31-1c-1.24-.12-3-.17-5.32-.17h-4.27v13.17h4.13a38.46,38.46,0,0,0,5.37-.29,9.13,9.13,0,0,0,3.29-1.13,5.67,5.67,0,0,0,2.07-2.13A6.87,6.87,0,0,0,270.43,313.48Zm17.75,11.89h-6.52V286.65h6.52Z" transform="translate(-11.3)"/><path class="cls-1" d="M355.92,306q0,9.77-4.72,15.09a15.94,15.94,0,0,1-12.55,5.33q-8.07,0-12.7-5.5T321.32,306q0-9.7,4.76-15.08a17.37,17.37,0,0,1,25.12,0Q355.91,296.28,355.92,306Zm-6.73,0q0-7.53-2.74-11.18a10.19,10.19,0,0,0-15.65,0Q328,298.49,328,306q0,7.28,2.76,11a10.06,10.06,0,0,0,15.63.07Q349.19,313.45,349.19,306Z" transform="translate(-11.3)"/><path class="cls-1" d="M395.31,325.37H388.8V292.26H371.25v33.11h-6.51V286.65h30.57Z" transform="translate(-11.3)"/><path class="cls-1" d="M436.86,325.37h-6.52V292.13H417c-.07,1.91-.14,3.76-.21,5.52s-.14,3.37-.21,4.81q-.19,5.43-.71,9.11a31.71,31.71,0,0,1-1.26,5.9A13.88,13.88,0,0,1,413,321a14.31,14.31,0,0,1-2.07,2.32,8,8,0,0,1-5.58,2.08l-1.42,0c-.58,0-1,0-1.21,0v-5.68H403l.51,0a5.21,5.21,0,0,0,.6,0,5.59,5.59,0,0,0,1.63-.24,3.13,3.13,0,0,0,1.42-.9c1.16-1.13,2-3.11,2.54-5.94a90.77,90.77,0,0,0,1.14-11.88c.09-1.89.18-4.14.26-6.72s.16-5.07.23-7.42h25.51Z" transform="translate(-11.3)"/><path class="cls-1" d="M470.05,321.25c-.53.39-1.24.94-2.13,1.64a14.45,14.45,0,0,1-2.58,1.68A19.25,19.25,0,0,1,462,326a16.49,16.49,0,0,1-4.52.49,11.43,11.43,0,0,1-4.54-.91,11.68,11.68,0,0,1-3.78-2.53,11.88,11.88,0,0,1-2.5-3.93,13.26,13.26,0,0,1-.93-4.94,13,13,0,0,1,1.7-6.85,11.6,11.6,0,0,1,5.37-4.49,26.75,26.75,0,0,1,7.7-2.06q4.42-.57,9.56-.85v-1.25a8.43,8.43,0,0,0-.69-3.69,5.13,5.13,0,0,0-1.94-2.17,7.59,7.59,0,0,0-3.05-1,23.24,23.24,0,0,0-9,.41,36.29,36.29,0,0,0-6.1,2h-.38v-6.62c1.2-.35,2.93-.73,5.17-1.15a36.91,36.91,0,0,1,6.65-.62,31.28,31.28,0,0,1,6.73.62,12.87,12.87,0,0,1,4.92,2.26,9.73,9.73,0,0,1,3.16,4.12,16.34,16.34,0,0,1,1,6.17v26.49h-6.49Zm0-5.41V305.09l-5.87.57a32.27,32.27,0,0,0-5.74,1,10.42,10.42,0,0,0-4.3,2.44,6.11,6.11,0,0,0-1.7,4.59,6.48,6.48,0,0,0,1.87,5,7.92,7.92,0,0,0,5.48,1.7,11.62,11.62,0,0,0,5.58-1.34A24,24,0,0,0,470.05,315.84Z" transform="translate(-11.3)"/><path class="cls-1" d="M516.11,292.37H502.93v33h-6.51v-33H483.24v-5.72h32.87Z" transform="translate(-11.3)"/><path class="cls-1" d="M551.83,313.38a11.23,11.23,0,0,1-1.13,5.09,10,10,0,0,1-3.06,3.71,14.45,14.45,0,0,1-4.89,2.46,25.29,25.29,0,0,1-6.69.73h-13V286.65h6.52v15.08h6.62a39.21,39.21,0,0,1,6.78.45,11.73,11.73,0,0,1,4.8,2.22,9.19,9.19,0,0,1,3,3.81A12.89,12.89,0,0,1,551.83,313.38Zm-6.72.1a7.49,7.49,0,0,0-.61-3.1,4.88,4.88,0,0,0-2-2.17,7.9,7.9,0,0,0-3.32-1c-1.23-.12-3-.17-5.32-.17h-4.26v13.17h4.12a38.52,38.52,0,0,0,5.38-.29,9.13,9.13,0,0,0,3.29-1.13,5.57,5.57,0,0,0,2.06-2.13A6.74,6.74,0,0,0,545.11,313.48Zm17.75,11.89h-6.52V286.65h6.52Z" transform="translate(-11.3)"/><rect class="cls-1" x="126.53" y="27" width="199" height="158"/><rect class="cls-1" x="108.53" width="233" height="27"/><polygon class="cls-1" points="325.52 191 124.53 191 108.53 219 348.52 219 325.52 191"/><polygon class="cls-2" points="303.02 123 147.39 123 140.53 169 303.52 169 303.02 123"/><rect class="cls-3" x="331.53" y="55" width="133" height="91" rx="6"/><rect class="cls-3" x="270.53" y="19" width="133" height="91" rx="6"/><path class="cls-2" d="M320.79,43.16l-7.07,17.45h-3l-7-17.45h3.18l5.41,13.89,5.36-13.89Z" transform="translate(-11.3)"/><path class="cls-2" d="M328.75,40.24h-3.32V37.19h3.32Zm-.19,20.37h-2.94V43.16h2.94Z" transform="translate(-11.3)"/><path class="cls-2" d="M348,60.61h-14.1V58.44l10.18-12.83h-10V43.16h13.61v2.09L337.5,58.13H348Z" transform="translate(-11.3)"/><path class="cls-2" d="M366.67,60.61h-2.92V58.75c-.27.18-.62.43-1.06.75a7.26,7.26,0,0,1-1.29.75,8.47,8.47,0,0,1-3.92.85,5.59,5.59,0,0,1-4-1.56,5.29,5.29,0,0,1-1.64-4,5.51,5.51,0,0,1,.85-3.21,5.71,5.71,0,0,1,2.43-1.93,12.86,12.86,0,0,1,3.83-.95c1.49-.17,3.09-.29,4.8-.38v-.45a3.43,3.43,0,0,0-.36-1.66,2.61,2.61,0,0,0-1-1,4.14,4.14,0,0,0-1.5-.48,11.65,11.65,0,0,0-4.41.18,19.06,19.06,0,0,0-2.94.88h-.15v-3c.57-.16,1.4-.33,2.48-.52a18.46,18.46,0,0,1,3.2-.28,15.11,15.11,0,0,1,3.21.3,6.39,6.39,0,0,1,2.37,1,4.56,4.56,0,0,1,1.5,1.86,6.78,6.78,0,0,1,.52,2.83Zm-2.92-4.29V51.46c-.9,0-2,.13-3.17.23a16.68,16.68,0,0,0-2.88.46,4.65,4.65,0,0,0-2.05,1.11,3.23,3.23,0,0,0,.13,4.35,4.25,4.25,0,0,0,2.76.75,6.62,6.62,0,0,0,2.83-.6A13.34,13.34,0,0,0,363.75,56.32Z" transform="translate(-11.3)"/><rect class="cls-2" x="289.53" y="79" width="95" height="12" rx="5"/><rect class="cls-2" x="353.53" y="119" width="95" height="12" rx="5"/><circle class="cls-2" cx="441.53" cy="84" r="7"/></g></g></svg>