<svg xmlns="http://www.w3.org/2000/svg" viewBox="0 0 99.72 99.44"><defs><style>.cls-1{fill:#909090;}.cls-2{fill:#fff;}</style></defs><title>Ресурс 2</title><g id="Слой_2" data-name="Слой 2"><g id="Слой_1-2" data-name="Слой 1"><polygon class="cls-1" points="49.86 3.44 57.31 0 63.42 5.49 71.55 4.39 75.77 11.44 83.87 12.79 85.82 20.76 93.16 24.44 92.68 32.64 98.61 38.31 95.73 46 99.72 53.18 94.71 59.68 96.4 67.71 89.7 72.44 88.95 80.62 81.15 83.16 78.03 90.75 69.82 90.89 64.6 97.22 56.72 94.93 49.86 99.44 43 94.93 35.12 97.22 29.9 90.89 21.69 90.75 18.57 83.16 10.77 80.62 10.02 72.44 3.32 67.71 5.01 59.68 0 53.18 3.99 46 1.11 38.31 7.04 32.64 6.56 24.44 13.9 20.76 15.85 12.79 23.95 11.44 28.17 4.39 36.3 5.49 42.41 0 49.86 3.44"/><path class="cls-2" d="M36.26,48.93A10.63,10.63,0,0,1,28,45.51q-3.09-3.43-3.09-9.16,0-6.26,3.27-9.86A11.32,11.32,0,0,1,37,22.88q5.38,0,8.35,3.34t3,9.39q0,6-3.32,9.69A11.23,11.23,0,0,1,36.26,48.93Zm.49-22.18a6.33,6.33,0,0,0-5.27,2.48A10.79,10.79,0,0,0,29.54,36a10.35,10.35,0,0,0,1.9,6.63A6.26,6.26,0,0,0,36.61,45a6.12,6.12,0,0,0,5.17-2.46,11.07,11.07,0,0,0,1.86-6.82,10.56,10.56,0,0,0-1.85-6.63A6,6,0,0,0,36.75,26.75ZM70,23.66,37.66,74.42h-5L64.94,23.66ZM66.28,74.85A10.6,10.6,0,0,1,58,71.4a13.17,13.17,0,0,1-3.09-9.14q0-6.26,3.3-9.9A11.3,11.3,0,0,1,67,48.72a10.55,10.55,0,0,1,8.33,3.38q3,3.38,3,9.46T75,71.21A11.23,11.23,0,0,1,66.28,74.85Zm.49-22.15a6.33,6.33,0,0,0-5.29,2.46A10.85,10.85,0,0,0,59.57,62a10.23,10.23,0,0,0,1.9,6.56,6.26,6.26,0,0,0,5.17,2.37,6.1,6.1,0,0,0,5.17-2.48,11.09,11.09,0,0,0,1.86-6.8A10.39,10.39,0,0,0,71.82,55,6.1,6.1,0,0,0,66.77,52.7Z"/></g></g></svg>