<svg xmlns="http://www.w3.org/2000/svg" viewBox="0 0 2353.85 2353.85"><defs><style>.cls-1{fill:#878787;}.cls-2{fill:#fff;}</style></defs><title>ruble</title><g id="Слой_2" data-name="Слой 2"><g id="Слой_1-2" data-name="Слой 1"><circle class="cls-1" cx="1176.92" cy="1176.92" r="1176.92"/><path class="cls-1" d="M2109.06,1895.41C563.9,2120.36,422,731.17,594,154.28,239.2,357,0,739,0,1176.92c0,650,526.93,1176.92,1176.92,1176.92,379.46,0,716.92-179.63,932.14-458.44Z"/><circle class="cls-2" cx="1176.92" cy="1176.92" r="961.49"/><path class="cls-1" d="M955.48,1215.41c172.88,0,313.53-140.65,313.53-313.53S1128.35,588.34,955.48,588.34H678.29a69,69,0,0,0-69,69v420.18H561.78a69,69,0,1,0,0,137.92h47.55v136.08H561.78a69,69,0,1,0,0,137.92h47.55v132.16a69,69,0,1,0,137.92,0V1489.4H939.17a69,69,0,1,0,0-137.92H747.25V1215.41ZM747.25,726.26H955.48c96.83,0,175.61,78.78,175.61,175.61s-78.78,175.61-175.61,175.61H747.25Z"/><path class="cls-1" d="M1908.77,1426.4c-.19-.75-.34-1.51-.56-2.26a481.17,481.17,0,0,0-21.29-63.43c-31.46-112.42-44.3-272.1,41-311.24a69,69,0,0,0-57.54-125.35C1766,972,1729.95,1073.74,1725.93,1179.29q-5.23-2.49-10.56-4.76c-40.77-28.09-77.89-121-89.45-193.65-13.09-82.24-1.33-153.71,31.46-191.19a69,69,0,0,0-103.79-90.82c-61.22,70-83.9,177.82-63.87,303.68,9.92,62.3,27.27,115,48.1,158.15-101.52,23.6-191.48,97.41-222.35,186.56a69,69,0,0,0,130.34,45.12c17.52-50.59,81.41-95,145.46-101,43.67-4.14,105.39,7.69,151.29,87.47a296.8,296.8,0,0,1,14.88,29.81c6.05,20.74,12.35,39.22,18.3,54.61,26.79,109.25,8.5,247-53.42,380.1-37.42,80.45-86.45,151.16-142.52,208.25a963.82,963.82,0,0,0,292.29-208.41c56.06-146.08,68.48-292.57,36.7-416.79Z"/></g></g></svg>