<svg xmlns="http://www.w3.org/2000/svg" viewBox="0 0 1584.62 2537.5"><defs><style>.cls-1{fill:#909090;}.cls-2{fill:none;stroke:#909090;stroke-miterlimit:10;stroke-width:75px;}.cls-3{fill:#fff;}</style></defs><title>Ресурс 1</title><g id="Слой_2" data-name="Слой 2"><g id="Слой_1-2" data-name="Слой 1"><rect class="cls-1" y="869.73" width="1584.62" height="1667.77" rx="12" ry="12"/><ellipse class="cls-2" cx="792.31" cy="893.62" rx="469.23" ry="856.12"/><path class="cls-3" d="M194.06,1337.93c18,10.35,45,19.35,73.35,19.35,35.55,0,55.35-16.65,55.35-41.4,0-22.95-15.3-36.45-54-50.4-49.95-18-81.9-44.55-81.9-88.2,0-49.5,41.4-87.3,107.1-87.3,32.85,0,57.15,7.2,72.9,15.3l-13.5,44.55c-10.8-5.85-32-14.4-60.3-14.4-35.1,0-50.4,18.9-50.4,36.45,0,23.4,17.55,34.2,58,50,52.65,19.8,78.3,46.35,78.3,90,0,48.6-36.9,90.9-115.2,90.9-31.95,0-65.25-9-81.9-18.9Z"/><path class="cls-3" d="M534.16,1595.28l-26.1,85.95H450.91l97.2-303.3h70.65l98.55,303.3h-59.4l-27.45-85.95ZM621,1553.43l-23.85-74.7c-5.85-18.45-10.8-39.15-15.3-56.7H581c-4.5,17.55-9,38.7-14.4,56.7l-23.4,74.7Z"/><path class="cls-3" d="M868.37,1721.93h55.35v256.95h124.65v46.35h-180Z"/><path class="cls-3" d="M1373.09,2183.68h-114.3v89.1h127.8v45.45H1203.45v-303.3h176.4v45.45h-121v78.3h114.3Z"/></g></g></svg>