<svg xmlns="http://www.w3.org/2000/svg" viewBox="0 0 859.07 980.11"><defs><style>.cls-1{fill:#8c8c8c;}</style></defs><title>search-icon</title><g id="Слой_2" data-name="Слой 2"><g id="svg2"><path id="path8" class="cls-1" d="M849.1,912.1,649.3,662.3l6.5-6.5C727.5,586.3,770.9,493,770.9,384.4A383.76,383.76,0,0,0,386.5,0C173.7,0,0,171.6,0,384.4S173.7,768.8,384.4,768.8c69.5,0,134.6-19.5,191.1-49.9,2.2-2.2,4.3-2.2,6.5-4.3L784,964.3c15.2,17.4,41.3,21.7,58.6,6.5C862.1,955.5,864.3,929.4,849.1,912.1ZM386.5,650.78c-142.69,0-257.9-119-257.9-266.38S243.81,118,386.5,118,644.4,237,644.4,384.4,529.27,650.78,386.5,650.78Z"/></g></g></svg>