<svg xmlns="http://www.w3.org/2000/svg" viewBox="0 0 512 512"><defs><style>.cls-1{fill:none;stroke:#7ba9d6;stroke-miterlimit:10;}.cls-2{fill:#878787;}</style></defs><title>stroller</title><g id="Слой_2" data-name="Слой 2"><g id="Layer_1" data-name="Layer 1"><path class="cls-1" d="M288,458.66a42.67,42.67,0,1,0,9.7-27.09A42.67,42.67,0,0,0,288,458.66Z"/><path class="cls-1" d="M96,416a42.67,42.67,0,1,0,33,15.58A42.66,42.66,0,0,0,96,416Z"/><path class="cls-2" d="M42.67,458.66a53.33,53.33,0,1,0,100.46-24.92l70.2-57.69,70.2,57.69a53.44,53.44,0,1,0,13.55-16.48l-67-55,32.7-26.87A168.18,168.18,0,0,0,426.66,167.71a32,32,0,0,1,32-32h42.67a10.67,10.67,0,1,0,0-21.33H458.66A53.42,53.42,0,0,0,406.4,157H224V10.67A10.67,10.67,0,0,0,213.33,0H167.71A167.52,167.52,0,0,0,49.26,286.16a166.51,166.51,0,0,0,114.57,49.21l32.7,26.87-67,55a53.3,53.3,0,0,0-86.91,41.4Zm256,0a32,32,0,1,1,32,32A32,32,0,0,1,298.66,458.66Zm-96-437.33V149.74l-87.85-47.9a10.67,10.67,0,0,0-10.21,18.73L171.48,157H21.72A146.71,146.71,0,0,1,120.16,29.27L149,78.65a10.67,10.67,0,0,0,18.43-10.76L141.6,23.67a146.77,146.77,0,0,1,26.11-2.34ZM259,314.08H167.68c-77.11,0-140.47-60-146-135.71H404.95C399.47,254.13,336.08,314.08,259,314.08Zm-45.63,34.35-15.84-13h31.69ZM64,458.66a32,32,0,1,1,32,32A32,32,0,0,1,64,458.66Z"/><path class="cls-2" d="M91.89,101.53A10.67,10.67,0,0,0,87.66,87L87,86.68a10.67,10.67,0,1,0-10.25,18.71l.66.36a10.66,10.66,0,0,0,14.48-4.23Z"/><path class="cls-2" d="M283.78,210.38A10.67,10.67,0,0,0,294.44,221h39.67a10.67,10.67,0,1,0,0-21.33H294.44A10.67,10.67,0,0,0,283.78,210.38Z"/><path class="cls-2" d="M354.09,210.38A10.67,10.67,0,0,0,364.75,221H365a10.67,10.67,0,0,0,0-21.33h-.25A10.67,10.67,0,0,0,354.09,210.38Z"/><path class="cls-2" d="M320,458.66A10.67,10.67,0,1,0,330.66,448,10.69,10.69,0,0,0,320,458.66Z"/><path class="cls-2" d="M85.33,458.66A10.67,10.67,0,1,0,96,448,10.69,10.69,0,0,0,85.33,458.66Z"/></g></g></svg>