<svg xmlns="http://www.w3.org/2000/svg" viewBox="0 0 417.37 331.61"><defs><style>.cls-1{fill:#bab6b8;}</style></defs><title>stuff-icon</title><g id="Слой_2" data-name="Слой 2"><g id="автозапчасти"><path class="cls-1" d="M477.31,112.28l-3.11-2.9s0-.08-.08-.12L461.61,75.45a15.23,15.23,0,0,0-14.24-9.86H358.78a15.22,15.22,0,0,0-14.24,9.86l-12.39,33.43-4.7,3.9a20.71,20.71,0,0,0-7.39,15.75v48.71a15.32,15.32,0,0,0,15.33,15.15h9.15a15,15,0,0,0,15-15V171h84.82v6.26a15,15,0,0,0,14.91,15.15h9.23a15.32,15.32,0,0,0,15.33-15.15V127.31A20.56,20.56,0,0,0,477.31,112.28Zm-124.88-34A6.68,6.68,0,0,1,358.78,74h88.55a6.68,6.68,0,0,1,6.34,4.33l10.46,28H457.7a24.46,24.46,0,0,0-48.2,0H342Zm96.71,28H418.06a16.1,16.1,0,0,1,31.08,0Zm-98,70.92a6.63,6.63,0,0,1-6.47,6.76h-9.28a6.91,6.91,0,0,1-6.93-6.76v-7.81a15.9,15.9,0,0,0,6.93,1.55h15.75Zm124.28,0a6.91,6.91,0,0,1-6.93,6.76h-9.15a6.61,6.61,0,0,1-6.59-6.64V171h15.74a15.75,15.75,0,0,0,6.93-1.55Zm-6.93-14.66H335.43a6.86,6.86,0,0,1-6.93-6.72V128.57a12.56,12.56,0,0,1,4.41-9.45l5.16-4.41H467.78l3.78,3.57a12.39,12.39,0,0,1,3.9,9v28.59h0A6.86,6.86,0,0,1,468.53,162.58Z" transform="translate(-192.11)"/><path class="cls-1" d="M366.71,127.31h-26a4.21,4.21,0,0,0-4.2,4.2v18.06a4.21,4.21,0,0,0,4.2,4.19h26a4.21,4.21,0,0,0,4.2-4.19V131.51A4.21,4.21,0,0,0,366.71,127.31Zm-4.2,18.06H344.88v-9.66h17.63Z" transform="translate(-192.11)"/><path class="cls-1" d="M463.29,127.31h-26a4.21,4.21,0,0,0-4.2,4.2v18.06a4.21,4.21,0,0,0,4.2,4.19h26a4.2,4.2,0,0,0,4.19-4.19V131.51A4.2,4.2,0,0,0,463.29,127.31Zm-4.2,18.06H441.45v-9.66h17.64Z" transform="translate(-192.11)"/><path class="cls-1" d="M418.69,141.59H385.23a4.2,4.2,0,0,0,0,8.4h33.46a4.2,4.2,0,0,0,0-8.4Z" transform="translate(-192.11)"/><path class="cls-1" d="M418.69,131.09H385.23a4.2,4.2,0,0,0,0,8.4h33.46a4.2,4.2,0,0,0,0-8.4Z" transform="translate(-192.11)"/><path class="cls-1" d="M469.75,24.69a4.19,4.19,0,0,0,4.54-3.82,3.71,3.71,0,0,0-.17-1.51,25.85,25.85,0,0,0-10-14.2A28.79,28.79,0,0,0,447.71,0C436,0,426.55,6,422.26,16H380.44A29,29,0,0,0,356.21,2.1a27.49,27.49,0,0,0-16.54,5.16,26.27,26.27,0,0,0-9.74,15.54,4.2,4.2,0,0,0,3.15,5,4.46,4.46,0,0,0,1.26.08L348,26.87a9,9,0,0,1,0,7.18L334.25,33a4.18,4.18,0,0,0-4.53,3.82,3.71,3.71,0,0,0,.17,1.51c3.36,11.64,13.77,19.15,26.53,19.15,11.68,0,21.17-6.13,25.45-16.21h41.65a27.82,27.82,0,0,0,23.85,14c.09,0,.17,0,.25,0a27.89,27.89,0,0,0,16.55-5.08,26.53,26.53,0,0,0,9.91-15.29A4.19,4.19,0,0,0,471,29.81a3.52,3.52,0,0,0-1.34-.12l-13.69,1a8.89,8.89,0,0,1,0-7.18Zm-19.35,13a4.13,4.13,0,0,0,3.65,1.63l9.49-.75c-3.24,5.33-8.82,8.27-16,8.31-8.44.09-15.16-6-17.76-11.55A4.33,4.33,0,0,0,426,32.88H378.85a4.29,4.29,0,0,0-4,3c-2.43,8.1-9.53,13.19-18.47,13.19-6.55,0-12-2.61-15.49-7.14l9,.75a4.23,4.23,0,0,0,3.7-1.63l.08-.13a17.08,17.08,0,0,0-.08-21,4.13,4.13,0,0,0-3.66-1.59l-9.65.76c3.15-5.46,8.69-8.49,15.95-8.49A20.59,20.59,0,0,1,374.1,22.17a4.13,4.13,0,0,0,3.78,2.31h47.28a4.11,4.11,0,0,0,4-2.9c2.44-8.1,9.53-13.1,18.43-13.1,6.51,0,12,2.73,15.46,7.27l-9-.76a4.19,4.19,0,0,0-3.69,1.64l-.09.12A17.27,17.27,0,0,0,450.4,37.71Z" transform="translate(-192.11)"/><path class="cls-1" d="M328,260.7h-5.51v-28H307.63v28h-5.51V228H328Z" transform="translate(-192.11)"/><path class="cls-1" d="M364.65,244.36c0,5.5-1.33,9.76-4,12.75a13.49,13.49,0,0,1-10.61,4.5q-6.82,0-10.74-4.64t-3.91-12.61q0-8.21,4-12.75a14.69,14.69,0,0,1,21.23,0Q364.65,236.12,364.65,244.36Zm-5.68,0c0-4.24-.78-7.39-2.32-9.45a7.74,7.74,0,0,0-6.59-3.09,7.83,7.83,0,0,0-6.64,3.09q-2.32,3.09-2.33,9.45,0,6.15,2.33,9.33a8.52,8.52,0,0,0,13.22.05Q359,250.62,359,244.36Z" transform="translate(-192.11)"/><path class="cls-1" d="M400.17,268.55H395v-7.94H373.48v7.94h-5.13V256h2.17a41.85,41.85,0,0,0,4.56-11.94,68.94,68.94,0,0,0,1.77-16.1h20.07v28h3.25ZM391.41,256V232.61H382A65.08,65.08,0,0,1,380,246a38.16,38.16,0,0,1-4.09,10Z" transform="translate(-192.11)"/><path class="cls-1" d="M430.59,232.81a13.11,13.11,0,0,1,3,4.91,20.42,20.42,0,0,1,1.06,6.9,19.81,19.81,0,0,1-1.2,7,16.2,16.2,0,0,1-3.26,5.4,14.38,14.38,0,0,1-4.67,3.44,13.28,13.28,0,0,1-5.58,1.16,14.57,14.57,0,0,1-5.64-1.07,11.09,11.09,0,0,1-4.38-3.29,18.64,18.64,0,0,1-3.38-7,40.61,40.61,0,0,1-1.13-10.37c0-1.46.06-3,.19-4.47a48.52,48.52,0,0,1,.83-5.43,28.8,28.8,0,0,1,1.59-5.23,13,13,0,0,1,2.6-4.09,14.78,14.78,0,0,1,5.44-3.45,33.77,33.77,0,0,1,8.89-1.79c1.31-.12,2.71-.23,4.2-.34l3.42-.25v5.07c-1,.06-2.1.13-3.26.22l-3.95.31a38,38,0,0,0-6.18,1,10.05,10.05,0,0,0-4.87,2.5,8.86,8.86,0,0,0-2,3.61,26,26,0,0,0-1,5.21,24.85,24.85,0,0,1,4.64-2.62,13.38,13.38,0,0,1,5.35-1.07,14.52,14.52,0,0,1,5.06.89A11.38,11.38,0,0,1,430.59,232.81ZM429,244.94c0-3.48-.78-6.14-2.34-8a8.27,8.27,0,0,0-6.68-2.78,13.57,13.57,0,0,0-4.6.79,18.71,18.71,0,0,0-4.19,2.11q-.06.74-.12,1.74t-.06,1.83a34.73,34.73,0,0,0,.82,8.3,13.26,13.26,0,0,0,2.29,5,7.45,7.45,0,0,0,2.78,2.27,8,8,0,0,0,3.19.63,7.69,7.69,0,0,0,6.57-3.2Q429,250.45,429,244.94Z" transform="translate(-192.11)"/><path class="cls-1" d="M469.1,244.36c0,5.5-1.33,9.76-4,12.75a13.47,13.47,0,0,1-10.61,4.5q-6.83,0-10.73-4.64t-3.92-12.61q0-8.21,4-12.75a14.69,14.69,0,0,1,21.23,0Q469.1,236.12,469.1,244.36Zm-5.68,0q0-6.36-2.32-9.45a8.61,8.61,0,0,0-13.22,0c-1.56,2.06-2.33,5.21-2.33,9.45s.77,7.21,2.33,9.33a8.51,8.51,0,0,0,13.21.05Q463.42,250.62,463.42,244.36Z" transform="translate(-192.11)"/><path class="cls-1" d="M504,243.48q0,8.18-3.91,13a12.2,12.2,0,0,1-9.89,4.85,15.22,15.22,0,0,1-4.31-.56,17,17,0,0,1-3.84-1.73v13.71h-5.5V228h5.5v3.43a20.34,20.34,0,0,1,4.56-3.09,12,12,0,0,1,5.46-1.25,10.15,10.15,0,0,1,8.78,4.45Q504,236,504,243.48Zm-5.69.61c0-3.73-.59-6.62-1.78-8.69a6.19,6.19,0,0,0-5.8-3.09,10.46,10.46,0,0,0-4.53,1,20.23,20.23,0,0,0-4.15,2.68v18.55a20.55,20.55,0,0,0,3.71,1.44,15,15,0,0,0,3.53.38,7.86,7.86,0,0,0,6.65-3.14Q498.32,250.13,498.32,244.09Z" transform="translate(-192.11)"/><path class="cls-1" d="M212.67,327.22c-.45.33-1,.79-1.8,1.39a13,13,0,0,1-2.18,1.42,16,16,0,0,1-2.83,1.17,14,14,0,0,1-3.82.41,9.78,9.78,0,0,1-3.84-.76,9.89,9.89,0,0,1-3.19-2.14,10.1,10.1,0,0,1-2.11-3.32,12,12,0,0,1,.64-10,9.83,9.83,0,0,1,4.54-3.79,22.55,22.55,0,0,1,6.51-1.74q3.75-.48,8.08-.72v-1.06a7.15,7.15,0,0,0-.58-3.12,4.36,4.36,0,0,0-1.64-1.83,6.56,6.56,0,0,0-2.58-.89,21.5,21.5,0,0,0-3.14-.22,21.15,21.15,0,0,0-4.48.57,29.45,29.45,0,0,0-5.16,1.66h-.32v-5.6c1-.29,2.47-.61,4.37-1a30.85,30.85,0,0,1,5.62-.52,26.27,26.27,0,0,1,5.69.52,11.06,11.06,0,0,1,4.16,1.91,8.11,8.11,0,0,1,2.66,3.49,13.61,13.61,0,0,1,.88,5.21V330.7h-5.48Zm0-4.57v-9.09c-1.31.12-3,.28-5,.49a26.36,26.36,0,0,0-4.85.86,8.74,8.74,0,0,0-3.63,2.07,5.13,5.13,0,0,0-1.44,3.88,5.48,5.48,0,0,0,1.58,4.25,6.72,6.72,0,0,0,4.63,1.43,9.77,9.77,0,0,0,4.72-1.13A20.65,20.65,0,0,0,212.67,322.65Z" transform="translate(-192.11)"/><path class="cls-1" d="M253.35,320.8a9.27,9.27,0,0,1-.91,4.2,8.58,8.58,0,0,1-2.49,3.07,11.22,11.22,0,0,1-4.17,2.09,22.07,22.07,0,0,1-5.23.54H227.69V298h12a44.06,44.06,0,0,1,5.27.22,9.11,9.11,0,0,1,3.31,1.13,6,6,0,0,1,2.55,2.49,7.73,7.73,0,0,1,.82,3.69,7.2,7.2,0,0,1-1.29,4.2,8.66,8.66,0,0,1-3.43,2.89l.15.2a8.61,8.61,0,0,1,4.47,2.73A7.68,7.68,0,0,1,253.35,320.8ZM246,306.36a4.79,4.79,0,0,0-.37-1.94,2.73,2.73,0,0,0-1.27-1.29,5.91,5.91,0,0,0-2.36-.65c-.87-.07-2.08-.11-3.62-.11h-5.24v9h6.32a15.41,15.41,0,0,0,2.87-.19,6.66,6.66,0,0,0,1.88-.81,3.35,3.35,0,0,0,1.38-1.58A6.37,6.37,0,0,0,246,306.36Zm1.67,14.47a6.14,6.14,0,0,0-.49-2.68,4.25,4.25,0,0,0-2.12-1.8,6.62,6.62,0,0,0-2.2-.62c-.78-.08-1.86-.12-3.25-.12h-6.47v10.7h4.77a33.74,33.74,0,0,0,4.6-.24,7.34,7.34,0,0,0,2.81-.93,5,5,0,0,0,1.79-1.76A5.23,5.23,0,0,0,247.67,320.83Z" transform="translate(-192.11)"/><path class="cls-1" d="M284.86,302.81H273.72V330.7h-5.5V302.81H257.08V298h27.78Z" transform="translate(-192.11)"/><path class="cls-1" d="M317.68,314.36c0,5.5-1.33,9.76-4,12.75a13.47,13.47,0,0,1-10.61,4.5q-6.82,0-10.74-4.64t-3.91-12.61q0-8.21,4-12.75a14.69,14.69,0,0,1,21.23,0Q317.68,306.12,317.68,314.36Zm-5.68,0q0-6.36-2.32-9.45a8.61,8.61,0,0,0-13.22,0c-1.56,2.06-2.33,5.21-2.33,9.45s.77,7.21,2.33,9.33a8.51,8.51,0,0,0,13.21.05Q312,320.62,312,314.36Z" transform="translate(-192.11)"/><path class="cls-1" d="M346.82,321.65a8.57,8.57,0,0,1-1.2,4.66,9.26,9.26,0,0,1-3.08,3,13.8,13.8,0,0,1-4.07,1.61,20.41,20.41,0,0,1-4.57.52,28.47,28.47,0,0,1-6.1-.63,25.58,25.58,0,0,1-5.71-2v-6.1h.35a14.24,14.24,0,0,0,5,2.92,17.83,17.83,0,0,0,6,1.07,14.69,14.69,0,0,0,2.77-.28,8.15,8.15,0,0,0,2.5-.86,5.64,5.64,0,0,0,1.92-1.76,5,5,0,0,0,.57-2.58,5.36,5.36,0,0,0-.66-2.83,4.08,4.08,0,0,0-1.8-1.59,7.42,7.42,0,0,0-2.56-.66c-.95-.09-1.95-.14-3-.14H329.3v-4.74h3c.74,0,1.67,0,2.78-.07a8.64,8.64,0,0,0,2.67-.46,5,5,0,0,0,2-1.33,4.47,4.47,0,0,0,.76-2.92,3.81,3.81,0,0,0-.65-2.31,4.46,4.46,0,0,0-1.61-1.38,7.11,7.11,0,0,0-2.17-.72,14.85,14.85,0,0,0-2.25-.19,18.27,18.27,0,0,0-5.35.78,12.51,12.51,0,0,0-4.41,2.3h-.35v-6a40.54,40.54,0,0,1,4.67-1.29,24.3,24.3,0,0,1,5.15-.55,22.13,22.13,0,0,1,4.23.42,15.23,15.23,0,0,1,4.09,1.45,9,9,0,0,1,3,2.74,7.19,7.19,0,0,1,1.23,4.26,7.56,7.56,0,0,1-1.51,4.68,7.1,7.1,0,0,1-4,2.65v.2a10.6,10.6,0,0,1,4.46,2.87A7.43,7.43,0,0,1,346.82,321.65Z" transform="translate(-192.11)"/><path class="cls-1" d="M372.67,327.22c-.45.33-1.05.79-1.8,1.39a12.65,12.65,0,0,1-2.19,1.42,15.66,15.66,0,0,1-2.82,1.17,14,14,0,0,1-3.83.41,9.77,9.77,0,0,1-3.83-.76,9.93,9.93,0,0,1-3.2-2.14,10.1,10.1,0,0,1-2.11-3.32,11.3,11.3,0,0,1-.79-4.18,11,11,0,0,1,1.44-5.79,9.83,9.83,0,0,1,4.54-3.79,22.48,22.48,0,0,1,6.5-1.74q3.75-.48,8.09-.72v-1.06a7.14,7.14,0,0,0-.59-3.12,4.29,4.29,0,0,0-1.64-1.83,6.45,6.45,0,0,0-2.58-.89,19.49,19.49,0,0,0-7.61.35,29.45,29.45,0,0,0-5.16,1.66h-.32v-5.6c1-.29,2.47-.61,4.36-1a31,31,0,0,1,5.63-.52,26.11,26.11,0,0,1,5.68.52,11,11,0,0,1,4.16,1.91,8.21,8.21,0,0,1,2.67,3.49,13.8,13.8,0,0,1,.88,5.21V330.7h-5.48Zm0-4.57v-9.09c-1.31.12-3,.28-5,.49a26.69,26.69,0,0,0-4.85.86,8.87,8.87,0,0,0-3.63,2.07,5.13,5.13,0,0,0-1.43,3.88,5.44,5.44,0,0,0,1.58,4.25,6.7,6.7,0,0,0,4.63,1.43,9.7,9.7,0,0,0,4.71-1.13A20.41,20.41,0,0,0,372.67,322.65Z" transform="translate(-192.11)"/><path class="cls-1" d="M413.52,330.7H408v-28H393.19v28h-5.51V298h25.84Z" transform="translate(-192.11)"/><path class="cls-1" d="M447.9,330.7h-5.51V317.93a39.62,39.62,0,0,1-5,1.32,25.51,25.51,0,0,1-4.8.47,15,15,0,0,1-4.06-.55,8.61,8.61,0,0,1-3.41-1.77,7.92,7.92,0,0,1-2.21-3.15,12,12,0,0,1-.78-4.52V298h5.51v8.88a26.14,26.14,0,0,0,.17,3.44,5.94,5.94,0,0,0,1,2.47,4.32,4.32,0,0,0,2,1.59,9.61,9.61,0,0,0,3.58.55,25,25,0,0,0,4.15-.38,28.15,28.15,0,0,0,3.85-.91V298h5.51Z" transform="translate(-192.11)"/><path class="cls-1" d="M476,327.22c-.45.33-1.05.79-1.8,1.39A13,13,0,0,1,472,330a16,16,0,0,1-2.83,1.17,14,14,0,0,1-3.82.41,9.78,9.78,0,0,1-3.84-.76,9.93,9.93,0,0,1-3.2-2.14,10.08,10.08,0,0,1-2.1-3.32,11.91,11.91,0,0,1,.64-10,9.83,9.83,0,0,1,4.54-3.79,22.48,22.48,0,0,1,6.5-1.74q3.75-.48,8.09-.72v-1.06a7,7,0,0,0-.59-3.12,4.29,4.29,0,0,0-1.64-1.83,6.46,6.46,0,0,0-2.57-.89,21.59,21.59,0,0,0-3.14-.22,21.15,21.15,0,0,0-4.48.57,29.45,29.45,0,0,0-5.16,1.66h-.32v-5.6c1-.29,2.47-.61,4.37-1a30.77,30.77,0,0,1,5.62-.52,26.11,26.11,0,0,1,5.68.52,11,11,0,0,1,4.16,1.91,8.21,8.21,0,0,1,2.67,3.49,13.61,13.61,0,0,1,.88,5.21V330.7H476Zm0-4.57v-9.09c-1.31.12-3,.28-5,.49a26.39,26.39,0,0,0-4.84.86A8.85,8.85,0,0,0,462.5,317a5.16,5.16,0,0,0-1.43,3.88,5.44,5.44,0,0,0,1.58,4.25,6.7,6.7,0,0,0,4.63,1.43,9.77,9.77,0,0,0,4.72-1.13A20.65,20.65,0,0,0,476,322.65Z" transform="translate(-192.11)"/><path class="cls-1" d="M504,331.44a17.73,17.73,0,0,1-6.18-1,12.74,12.74,0,0,1-4.83-3.15,14.34,14.34,0,0,1-3.14-5.32,23.14,23.14,0,0,1-1.11-7.55,21.54,21.54,0,0,1,1.15-7.44,16.22,16.22,0,0,1,3.1-5.27,12.79,12.79,0,0,1,4.81-3.3,16.55,16.55,0,0,1,6.2-1.15,17.68,17.68,0,0,1,5.2.76,27.4,27.4,0,0,1,4.47,1.76v6.18h-.32c-.39-.33-.9-.72-1.51-1.15a21.22,21.22,0,0,0-2.24-1.31,14.67,14.67,0,0,0-2.7-1,11,11,0,0,0-3-.44,8.37,8.37,0,0,0-6.87,3.24q-2.6,3.24-2.59,9.15t2.51,9a8.27,8.27,0,0,0,6.95,3.24,12.2,12.2,0,0,0,5.13-1.11,16.22,16.22,0,0,0,4.31-2.87h.32v6.18l-2.05.92a16.33,16.33,0,0,1-2.23.81q-1.41.41-2.52.63A15.86,15.86,0,0,1,504,331.44Z" transform="translate(-192.11)"/><path class="cls-1" d="M544.35,302.81H533.22V330.7h-5.51V302.81H516.58V298h27.77Z" transform="translate(-192.11)"/><path class="cls-1" d="M564.47,331.46q-7.83,0-12.15-4.4T548,314.53q0-8,4.19-12.73a14,14,0,0,1,11-4.73,15.23,15.23,0,0,1,5.39.88,10.65,10.65,0,0,1,4.1,2.75,12.58,12.58,0,0,1,2.69,4.59,20.28,20.28,0,0,1,.94,6.63v3H553.6c0,3.81.95,6.72,2.87,8.73a10.44,10.44,0,0,0,7.94,3,15.74,15.74,0,0,0,3.56-.41,16.62,16.62,0,0,0,3.15-1.06,22.28,22.28,0,0,0,2.52-1.3,13.44,13.44,0,0,0,1.69-1.19h.33v6l-2.41,1c-1,.38-1.81.68-2.57.9-1.08.29-2,.51-2.92.67A18.83,18.83,0,0,1,564.47,331.46Zm6.44-20.77a14.93,14.93,0,0,0-.53-3.83,7.92,7.92,0,0,0-1.34-2.73,6.19,6.19,0,0,0-2.48-1.87,9.53,9.53,0,0,0-3.74-.65,9.43,9.43,0,0,0-3.73.66,8.77,8.77,0,0,0-4.67,4.78,12,12,0,0,0-.82,3.64Z" transform="translate(-192.11)"/><path class="cls-1" d="M609.48,330.7H604V306.3l-15.41,24.4h-5V298h5.45v24l15.23-24h5.16ZM607,282.77a16.08,16.08,0,0,1-.62,4.59,9.87,9.87,0,0,1-1.76,3.47,8.87,8.87,0,0,1-3,2.33,11.73,11.73,0,0,1-8.49,0,8.2,8.2,0,0,1-3-2.3,10,10,0,0,1-1.81-3.52,15.72,15.72,0,0,1-.62-4.54h4.75q0,4,1.23,5.7a4.71,4.71,0,0,0,7.29,0q1.29-1.71,1.29-5.73Z" transform="translate(-192.11)"/></g></g></svg>