<svg xmlns="http://www.w3.org/2000/svg" viewBox="0 0 23.06 19.56"><defs><style>.cls-1{fill:#909090;}.cls-2{fill:#fff;}</style></defs><title>Ресурс 1</title><g id="Слой_2" data-name="Слой 2"><g id="Слой_2-2" data-name="Слой 2"><path class="cls-1" d="M12.33,3.69l8.32,15.12a.5.5,0,0,1-.44.74H3.57a.5.5,0,0,1-.44-.74L11.45,3.69A.5.5,0,0,1,12.33,3.69Z"/><rect class="cls-1" x="22.06" y="16.17" width="1" height="3.39" rx="0.5" ry="0.5"/><rect class="cls-1" x="0.99" y="16.17" width="1" height="3.39" rx="0.5" ry="0.5"/><rect class="cls-1" x="0.31" y="15.07" width="8.38" height="0.85" transform="translate(-9.32 7.17) rotate(-42.72)"/><rect class="cls-1" x="15.31" y="15.26" width="8.38" height="0.85" transform="translate(23.19 40.43) rotate(-137.28)"/><path class="cls-2" d="M11.89,13.34c-1.68,0-3,1.34-3,3.92h6.08C14.93,14.68,13.57,13.34,11.89,13.34Z"/><path class="cls-1" d="M0,.19H4.4A4.4,4.4,0,0,1,3.11,3.3,4.4,4.4,0,0,1,0,4.59Z"/><circle class="cls-1" cx="0.58" cy="5.75" r="0.58"/><circle class="cls-1" cx="2.5" cy="5.75" r="0.58"/><circle class="cls-1" cx="4.4" cy="4.59" r="0.58"/><circle class="cls-1" cx="5.51" cy="2.76" r="0.58"/><circle class="cls-1" cx="5.61" cy="0.58" r="0.58"/></g></g></svg>