<svg id="Слой_1" data-name="Слой 1" xmlns="http://www.w3.org/2000/svg" viewBox="0 0 1735.04 1785.55"><defs><style>.cls-1{fill:#878787;}</style></defs><title>travel-icon</title><path class="cls-1" d="M1707,2170.31l30.13-58.07c-15.47-14.19-28.68-4.28-44,5.23,1.36-15.94,12.24-18.88,20.76-26.3,14-12.2,21.6,1.81,33.17,2.52-1.25-3.48-1.67-6.51-3.24-8.73-13.93-19.73-13.53-19.25,2.29-35.93q55-58,109.23-116.88c56.85-62.06,113.22-124.55,169.81-186.84q70.9-78,141.84-156,85.35-94,170.62-188.12c46.92-51.66,94-103.13,140.87-154.86q83.23-91.94,166.18-184.14c7.38-8.17,20.28-8.11,28.78.7,7.57,7.86,12.83,15.93,2.73,27-46.75,51.21-92.87,103-139.36,154.44q-72,79.65-144.26,159.05-75,82.73-150.09,165.46c-8.23,9.08-16.37,18.25-24.51,27.33,18.91,20,18.14,25.48-1.83,46.46-5.39,5.66-22.76,13.46-2.22,23.34,1.63.78,2.3,8.5,1.19,9.14-4.09,2.35-9.12,3.09-11.21,3.69-31.38,36.74-62.16,72.68-92.82,108.71-44.91,52.78-89.35,106-134.73,158.35-30.5,35.19-62.24,69.3-93.56,103.77-5.36,5.9-6.17,9.59,1.4,15.1,18.24,13.28,21,27.16,11.76,48.16-7.69,17.49-8,34.57,3.58,50.82,2.36,3.3,4.18,7,3.65,12.54-2.39-2.39-5.34-4.43-7.08-7.22-14.53-23.19-37-23.89-60.18-20.42-4.2.63-10,7.64-10.59,12.26a472.27,472.27,0,0,0-3.53,54.2c-.19,24,11.25,43.85,25.11,62.44,12,16,15.26,18.15-4.12,33.17-17.16,13.3-34.31,25.55-58.11,25.86-6.46.09-14.82,10.87-18.79,18.56-19.57,37.92-37.94,76.45-56.78,114.75-29.15,59.25-58.46,118.42-87.42,177.76-5.13,10.5-14.26,19.17-7.56,34.16,4.41,9.86-6.69,10.12-7.76,12.55-17.3,27-34.73,54-51.86,81.12-7.31,11.57-15.2,8.54-23.27,1.53-18.39-16-36.54-32.22-54.9-48.22-25.33-22.07-51.2-43.55-76-66.24a204.7,204.7,0,0,1-28.91-33.7c-6.68-9.55-6.11-18.21,4.1-28.46,33.41-33.54,66.7-67.65,75.71-117.49,1.34-7.39,8.36-14.27,13.92-20.3q71.46-77.5,143.37-154.58c6.09-6.56,12.07-13.24,18.13-19.84,9.43-10.27,21.62-10.49,33.19-6.67,35.1,11.58,73.49-25.39,69.08-62.16C1726.83,2200.93,1724.72,2183.11,1707,2170.31Zm169.23-41.94c-17.28,10.83-27.08-14.48-45.27-10.54,2.21,4.94,3.13,12.16,6.49,13.56,11.58,4.84,23.88,9.23,36.2,10.22,3.49.28,8.22-11.44,11.91-17.93a67,67,0,0,0,6.6-14.8c3.07-11.06,2.33-21.81-7.79-29.2-10.74-7.85-21.63-9.44-31.39,2.16-6.82,8.12-13.78,16.12-20.38,23.83Z" transform="translate(-1053.47 -1030.39)"/><path class="cls-1" d="M1399.58,1030.39,2409.3,2386.16c25.05-11.79,44.5-5.52,59.82,21.43,2.29-47.53,21.7-80.12,63.8-94.25,41.84-14,76.83-.22,105.4,33.75l77.56-51.06,72.62,109.8-36.61,24.22-48.46-73.19c-15.51,10.25-30.45,19.76-44.87,30-2.53,1.8-3.95,6.62-4.1,10.13-2.91,69.16-55.1,107.63-122.74,90.25-1.22-.31-2.56-.19-5.45-.37,3.27,4.87,5.82,8.83,8.53,12.67q74.82,105.74,149.67,211.46c18.48,26.11,15.23,44.43-11.16,63.16-4,2.83-8,5.68-12,8.47-23,16-42.47,12.82-58.55-9.82q-54.15-76.19-108.07-152.56c-37.55-53-74.88-106.25-112.77-159-11.19-15.59-14.86-30.67-5-48.35,1.65-3-1-9.84-3.63-13.43q-72.63-98.27-145.81-196.13L1392.31,1081.89c-4-5.32-8-10.61-13-17.29-5.09,3.8-9.42,7.26-14,10.41-33.51,23.12-66.84,46.49-100.66,69.13-26.45,17.71-55.22,32.37-79.89,52.21-27.84,22.39-52.26,49-78.06,73.92-1.5,1.44-2.3,3.81-2.94,5.9-10.55,34.72-23.26,69-30.53,104.4-3.53,17.16,2.56,36.53,5.37,54.73,9.51,61.52,44.89,112.22,70.36,167.08,10.61,22.86,20.88,46,29.63,69.6,11.87,32.07,24.33,64.18,32.54,97.27,10.77,43.45,16.59,88.1,26.5,131.8a258.78,258.78,0,0,1-.05,114.94c-7,30.9-18.75,61.17-32,90.06-11.57,25.17-28.48,47.86-42.45,72-4.41,7.61-6.48,16.53-10.4,24.47-16.47,33.34-32.55,66.9-50.08,99.68-17.75,33.18-24.26,68.86-29.95,105.53-6.71,43.27,6.77,83.69,12,125.3,4.23,33.47,21.28,61.62,36.76,90.41,16.15,30,32.27,60.13,49.52,89.54,7.12,12.14,16.38,23.28,26,33.58,10.23,10.91,26.45,10.54,37.47.95s13.16-25.24,4.36-37.34c-6.51-9-14.05-17.17-21.71-26.4l-12.32,7-8.25-47.84,45.33,16.39-8.79,11.13c6.63,8,13.21,15.76,19.59,23.68,17.13,21.26,16.35,47.8-1.85,66.61-17.45,18-44,19.47-65.53,3.54l-4.15-3.07c-4.95,12.41-7.89,25.62-14.92,36.07-10.87,16.17-28.09,21.4-47.14,17.38-20.12-4.25-33-16.94-37.86-37-2.71-11.17-4.24-22.62-6.39-34.43H1062c.58-2.87.74-5,1.46-7,4.36-12,8.85-24,14.19-38.35l31.11,37.07-13,5.34c2,11.25,3.26,22.31,6,33,4,15.59,17.39,23.92,32.17,21,15.26-3,24.33-14.9,22.43-31.24-1.57-13.54-4.84-25.45-14.11-37.71-11.07-14.65-14.37-35.07-21.57-52.78-5.68-14-13-27.29-18.1-41.45-13.25-37.13-27.79-74-37.85-112-14.05-53.13-15.09-107.6-1.69-161.11,6.29-25.12,17.12-49.25,27.35-73.21,13.4-31.39,27.52-62.53,42.65-93.12,18.14-36.67,37.54-72.72,56.65-108.9,9.94-18.82,20.47-37.33,30.61-56a16,16,0,0,0,1.73-6.32c2-28.29,4-56.59,5.7-84.89a47.19,47.19,0,0,0-.91-13.25c-19.65-86.08-35-173.41-73.54-254-20.5-42.84-41-85.69-60.17-129.15-18.84-42.81-33.64-87-38.12-134.07a64.73,64.73,0,0,1-.32-9.26c2-40.64,11.57-79.7,26-117.52,3.07-8,9.4-15.08,15.2-21.74,16.27-18.71,32.21-37.82,49.83-55.21a751.12,751.12,0,0,1,60.72-54c20.66-16.38,42.21-32,64.9-45.38C1312.92,1077.36,1355.7,1054.7,1399.58,1030.39Z" transform="translate(-1053.47 -1030.39)"/></svg>