<svg id="Слой_1" data-name="Слой 1" xmlns="http://www.w3.org/2000/svg" viewBox="0 0 2680.95 2326.86"><defs><style>.cls-1{fill:#878787;}</style></defs><title>tube-icon</title><g id="Big_Tower" data-name="Big Tower"><rect class="cls-1" x="1508.99" y="434.4" width="1059.11" height="208.2"/><polygon class="cls-1" points="2510.39 957.86 2445.08 434.86 1635.18 434.86 1572.25 957.86 2510.39 957.86"/><polygon class="cls-1" points="1457.01 1917.86 1407.87 2326.86 2680.95 2326.86 2629.97 1917.86 1457.01 1917.86"/><polygon class="cls-1" points="2616.88 1812.86 2576.9 1491.86 1508.15 1491.86 1469.62 1812.86 2616.88 1812.86"/><polygon class="cls-1" points="2563.44 1383.86 2524.59 1071.86 1558.56 1071.86 1521.12 1383.86 2563.44 1383.86"/></g><g id="Low_Tower" data-name="Low Tower"><polygon class="cls-1" points="1224.33 1491.86 1176.18 961.86 576.18 961.86 528.03 1491.86 1224.33 1491.86"/><polygon class="cls-1" points="1263.03 1917.86 1234.14 1599.86 518.22 1599.86 489.34 1917.86 1263.03 1917.86"/><polygon class="cls-1" points="480.07 2019.86 452.18 2326.86 1300.18 2326.86 1272.29 2019.86 480.07 2019.86"/><rect class="cls-1" x="452.18" y="961.86" width="848" height="214.85"/></g><path class="cls-1" d="M1033.51,1402.9C944.18,1356.12,273.26,949,840,859.77c296.46-46.7,342.26-12.77,463.14,88.1,59.89,50,305.66,556.27,247.74,709.59C1508.53,1769.51,1202.06,1491.17,1033.51,1402.9Z" transform="translate(-614.82 -839.14)"/></svg>