<svg xmlns="http://www.w3.org/2000/svg" viewBox="0 0 402.22 345.07"><defs><style>.cls-1{fill:#bab6b8;}</style></defs><title>tyres-icon</title><g id="Слой_2" data-name="Слой 2"><g id="шины"><g id="tyre"><path class="cls-1" d="M179.55,89.13a70,70,0,0,0-3.27,8.66l20,1.09L181.35,85.57C180.72,86.74,180.09,87.91,179.55,89.13Z" transform="translate(-40.14)"/><path class="cls-1" d="M173.36,117.16a64.38,64.38,0,0,0,1,11.09l33.35-1.84a4.26,4.26,0,0,1,4.1,2.59,4.19,4.19,0,0,1-1.05,4.73l-18.91,16.91h28.45l3.52-3.89a4.18,4.18,0,0,1,7.28,3.05l0,.84h18.57l0-.84a4.18,4.18,0,0,1,7.28-3.05l3.52,3.89H288.8l-18.91-16.91a4.22,4.22,0,0,1,3.05-7.32l33.35,1.84a63.24,63.24,0,0,0,0-22.18l-33.31,1.84h-.25a4.13,4.13,0,0,1-3.85-2.59,4.19,4.19,0,0,1,1.05-4.73l24.9-22.22a68,68,0,0,0-15.7-15.65L256.88,87.58A4.36,4.36,0,0,1,253.74,89a4.25,4.25,0,0,1-4.19-4.31v-.13l1.84-33.35c-1-.16-2.13-.37-3.22-.5a66.75,66.75,0,0,0-15.73,0c-1.09.13-2.18.34-3.22.5l1.84,33.35A4.27,4.27,0,0,1,227,89h-.12a4.32,4.32,0,0,1-3.13-1.38L201.52,62.72a68,68,0,0,0-15.7,15.65l24.9,22.22a4.19,4.19,0,0,1,1.05,4.73,4.13,4.13,0,0,1-3.85,2.59h-.25l-33.31-1.84A64.42,64.42,0,0,0,173.36,117.16Zm66.95-20.92a20.92,20.92,0,1,1-20.93,20.92A20.92,20.92,0,0,1,240.31,96.24Z" transform="translate(-40.14)"/><path class="cls-1" d="M320,195.83a4.19,4.19,0,0,1-5.07,0L295.41,181l-19.54,14.81a4.26,4.26,0,0,1-5.06,0L251.27,181l-19.5,14.81a4.17,4.17,0,0,1-5.06,0L207.16,181l-19.54,14.81a4.17,4.17,0,0,1-5.06,0L163.06,181l-19.5,14.81a4.17,4.17,0,0,1-5.06,0l-15.36-11.68v18.79L141,216.5l19.5-14.81a4.17,4.17,0,0,1,5.06,0l19.54,14.81,19.5-14.81a4.19,4.19,0,0,1,5.07,0l19.54,14.81,19.54-14.81a4.17,4.17,0,0,1,5.06,0l19.54,14.81,19.5-14.81a4.17,4.17,0,0,1,5.06,0l19.54,14.85,19.59-14.85a4.17,4.17,0,0,1,5.06,0l15.36,11.67V194.57L339.56,181Z" transform="translate(-40.14)"/><path class="cls-1" d="M208.71,58.2,222,73.1l-1.09-20A68.27,68.27,0,0,0,208.71,58.2Z" transform="translate(-40.14)"/><path class="cls-1" d="M336.55,159H144.06a20.88,20.88,0,0,0-20,15.31l17,12.89,19.5-14.81a4.17,4.17,0,0,1,5.06,0l19.54,14.81,19.5-14.81a4.19,4.19,0,0,1,5.07,0l19.54,14.81,19.54-14.81a4.17,4.17,0,0,1,5.06,0l19.54,14.81,19.5-14.81a4.17,4.17,0,0,1,5.06,0l19.54,14.85,19.59-14.85a4.17,4.17,0,0,1,5.06,0l15.36,11.67v-4.14A20.92,20.92,0,0,0,336.55,159Z" transform="translate(-40.14)"/><circle class="cls-1" cx="200.16" cy="117.16" r="12.55"/><path class="cls-1" d="M258.59,73.1,271.9,58.2a68.27,68.27,0,0,0-12.22-5.06Z" transform="translate(-40.14)"/><path class="cls-1" d="M240.31,0a117.19,117.19,0,0,0-111,154.65,29.5,29.5,0,0,1,14.77-4H172.9A75.26,75.26,0,0,1,165,117.16a75.72,75.72,0,0,1,6.94-31.55,75.83,75.83,0,0,1,59.5-43.22,74.22,74.22,0,0,1,17.75,0,75.83,75.83,0,0,1,59.5,43.22,71.9,71.9,0,0,1,5.48,16.91,72.7,72.7,0,0,1,1.46,14.64,75.39,75.39,0,0,1-7.9,33.48h28.83a29.5,29.5,0,0,1,14.77,4A117.18,117.18,0,0,0,240.31,0Z" transform="translate(-40.14)"/><path class="cls-1" d="M181.35,148.75l14.89-13.3-20,1.09A64.35,64.35,0,0,0,181.35,148.75Z" transform="translate(-40.14)"/><path class="cls-1" d="M304.37,136.54l-20-1.09,14.89,13.3A64.35,64.35,0,0,0,304.37,136.54Z" transform="translate(-40.14)"/><path class="cls-1" d="M301.06,89.13c-.54-1.22-1.17-2.39-1.8-3.56L284.37,98.88l20-1.09A70,70,0,0,0,301.06,89.13Z" transform="translate(-40.14)"/><path class="cls-1" d="M320,225.12a4.19,4.19,0,0,1-5.07,0l-19.54-14.81-19.54,14.81a4.26,4.26,0,0,1-5.06,0l-19.54-14.81-19.5,14.81a4.17,4.17,0,0,1-5.06,0l-19.55-14.81-19.54,14.81a4.17,4.17,0,0,1-5.06,0l-19.5-14.81-19.5,14.81a4.17,4.17,0,0,1-5.06,0l-15.36-11.63a21,21,0,0,0,20.92,20.83H336.55a20.88,20.88,0,0,0,18.87-12l-15.86-12Z" transform="translate(-40.14)"/></g><path class="cls-1" d="M70.72,330.78H64.2v-33.1H46.66v33.1H40.14V292.06H70.72Z" transform="translate(-40.14)"/><path class="cls-1" d="M114.14,311.44q0,9.78-4.71,15.1a16,16,0,0,1-12.55,5.32q-8.09,0-12.71-5.5t-4.63-14.92q0-9.7,4.77-15.08A16,16,0,0,1,96.88,291a15.91,15.91,0,0,1,12.55,5.36Q114.14,301.7,114.14,311.44Zm-6.72,0q0-7.53-2.74-11.18a10.21,10.21,0,0,0-15.66,0q-2.74,3.66-2.75,11.18,0,7.28,2.75,11a10.07,10.07,0,0,0,15.64.07Q107.42,318.86,107.42,311.44Z" transform="translate(-40.14)"/><path class="cls-1" d="M156.17,340.07h-6.06v-9.39H124.59v9.39h-6.07V325.24h2.57a49.68,49.68,0,0,0,5.39-14.13,81.27,81.27,0,0,0,2.1-19.05h23.75v33.18h3.84Zm-10.36-14.83v-27.7h-11.1a76.43,76.43,0,0,1-2.37,15.82,44.72,44.72,0,0,1-4.84,11.88Z" transform="translate(-40.14)"/><path class="cls-1" d="M192.17,297.78a15.48,15.48,0,0,1,3.51,5.81,24.39,24.39,0,0,1,1.24,8.16A23.36,23.36,0,0,1,195.5,320a18.8,18.8,0,0,1-3.85,6.39,16.84,16.84,0,0,1-5.53,4.08,15.88,15.88,0,0,1-6.6,1.37,17,17,0,0,1-6.67-1.27,13.09,13.09,0,0,1-5.19-3.9,21.92,21.92,0,0,1-4-8.25,47.94,47.94,0,0,1-1.33-12.27c0-1.73.07-3.5.22-5.29a56.56,56.56,0,0,1,1-6.43,34.42,34.42,0,0,1,1.87-6.19,15.12,15.12,0,0,1,3.09-4.83,17.27,17.27,0,0,1,6.43-4.09,39.72,39.72,0,0,1,10.52-2.12c1.55-.14,3.21-.27,5-.4l4-.29v6c-1.2.06-2.48.15-3.85.25l-4.68.37a43.78,43.78,0,0,0-7.31,1.23,11.88,11.88,0,0,0-5.76,3,10.58,10.58,0,0,0-2.32,4.27,31.09,31.09,0,0,0-1.21,6.17,29,29,0,0,1,5.49-3.1,15.73,15.73,0,0,1,6.33-1.27,17,17,0,0,1,6,1.06A13.41,13.41,0,0,1,192.17,297.78Zm-1.87,14.35q0-6.17-2.77-9.46c-1.85-2.2-4.48-3.3-7.91-3.3a16.25,16.25,0,0,0-5.44.94,22.2,22.2,0,0,0-5,2.5c0,.57-.09,1.26-.13,2.06S169,306.39,169,307a40.48,40.48,0,0,0,1,9.82,15.57,15.57,0,0,0,2.7,5.93,8.88,8.88,0,0,0,3.29,2.68,9.45,9.45,0,0,0,3.78.75,9.09,9.09,0,0,0,7.77-3.78Q190.31,318.65,190.3,312.13Z" transform="translate(-40.14)"/><path class="cls-1" d="M237.74,311.44q0,9.78-4.71,15.1a16,16,0,0,1-12.55,5.32q-8.08,0-12.71-5.5t-4.63-14.92q0-9.7,4.77-15.08a17.37,17.37,0,0,1,25.12,0Q237.74,301.7,237.74,311.44Zm-6.72,0q0-7.53-2.74-11.18a10.19,10.19,0,0,0-15.65,0q-2.76,3.66-2.76,11.18,0,7.28,2.76,11a10.06,10.06,0,0,0,15.63.07Q231,318.86,231,311.44Z" transform="translate(-40.14)"/><path class="cls-1" d="M279.05,310.4q0,9.68-4.63,15.41a14.44,14.44,0,0,1-11.7,5.74,17.92,17.92,0,0,1-5.1-.66,19.85,19.85,0,0,1-4.54-2.05v16.23h-6.52v-53h6.52v4.05a24.24,24.24,0,0,1,5.39-3.65,14.37,14.37,0,0,1,6.47-1.48,12,12,0,0,1,10.38,5.27Q279.06,301.53,279.05,310.4Zm-6.73.73q0-6.63-2.11-10.28t-6.87-3.66a12.28,12.28,0,0,0-5.35,1.23,23.46,23.46,0,0,0-4.91,3.17v22a23.09,23.09,0,0,0,4.39,1.7,17.41,17.41,0,0,0,4.17.45,9.3,9.3,0,0,0,7.87-3.71Q272.33,318.26,272.32,311.13Z" transform="translate(-40.14)"/><path class="cls-1" d="M358.09,330.78H312.26V292.06h6.51v33.21h13.14V292.06h6.52v33.21h13.14V292.06h6.52Z" transform="translate(-40.14)"/><path class="cls-1" d="M400.22,330.78h-6.44V301.9l-18.24,28.88h-5.89V292.06h6.45v28.43l18-28.43h6.1Z" transform="translate(-40.14)"/><path class="cls-1" d="M442.36,330.78h-6.52V313.35H418.3v17.43h-6.52V292.06h6.52v15.67h17.54V292.06h6.52Z" transform="translate(-40.14)"/></g></g></svg>