<svg id="Слой_1" data-name="Слой 1" xmlns="http://www.w3.org/2000/svg" viewBox="0 0 1329.16 1108.2"><defs><style>.cls-1{fill:#878787;}</style></defs><title>zoo-icon</title><path class="cls-1" d="M2380.53,1212.41c16.35,57.75,11.08,116.6,7.72,175.1-5.12,89.17-19.06,177.43-29.93,266-2.26,18.41.26,36,5.66,53.46,31.86,102.83,48,208.08,45.49,315.68-1.79,77.93-15.88,153.81-46.73,226-16.78-18.68-40-24.87-62.71-31.32-62.4-17.73-126.19-30.36-187.79-51-50.41-16.9-100.58-34.46-143.82-66.78-64.66-48.34-96-116.49-114.33-192.45-9.13-37.86-15.36-76.43-27.17-113.63a319.9,319.9,0,0,0-12.22-31.52c-12.67-28.89-35.2-42.86-66.56-43.7-31.18-.84-52.56,13.94-66.91,40.56-15.92,29.54-24.87,61.7-34.65,93.49-13.64,44.37-29.81,87.64-52.82,128.09C1552,2053.78,1491,2105.07,1413.89,2138.7c-65.41,28.53-133.6,48.39-201.82,68.52-29.52,8.71-60.65,15-84.49,40-14.16-31.21-23.11-63.53-30.57-96.38-27.66-121.75-17.39-242.7,8.31-363.13,7.18-33.64,18.84-66.33,25.68-100,7.46-36.76-4.09-73-8.44-109.26-12.44-103.83-27.09-207.46-22-312.51a193,193,0,0,1,6.69-41.74c7-25.62,18.79-34,46.17-31.27,39.23,4,75.63,18.22,111.75,33,75.43,30.78,147.54,68.58,220.11,105.32,25.35,12.83,50.57,16.24,78.63,11.72,122.63-19.73,245.42-19.89,368,1,28.94,4.94,54.37-2.86,79.72-15.76,79-40.25,157.63-81.48,240.79-113,25.94-9.81,52.28-18.22,79.85-21.89C2351.71,1190.76,2369.85,1192.4,2380.53,1212.41Zm-981.2,845.9c43.73,0,83.68-13,113.76-44.26,71.38-74.22,69.12-121,18-189.12-1-1.35-2.1-2.65-3.16-4-69.89-86.5-187.54-89.42-258.32-5.52-24.41,28.93-43.75,61.83-38.18,101.61C1242.63,1997,1316.74,2058.37,1399.34,2058.32Zm688.22-303.93c-69.46,2.42-120.92,38-152.5,103.06-9.66,19.91-16.79,41.08-11.19,63.78,16.83,68.15,57.91,115.18,126.45,131.95,69.77,17.07,130.89-2.84,174.5-61,50.83-67.75,44.14-100.3,4.56-158.13C2196.48,1786,2152,1755.76,2087.56,1754.39Z" transform="translate(-1080.56 -1192.4)"/><path class="cls-1" d="M1742,2087.11c26.35.22,48.85,1.95,69.73,12.11,24.66,12,29.09,28.37,13,50.51-14.11,19.4-32.13,35.06-52.28,47.81-9.49,6-9.53,11.35-5,20.42,15.26,30.69,47.3,47,81.65,40.67,32.62-6,56.75-32.75,59.6-66.91,1-11.5,3.29-21.61,15.91-24.93,9.45-2.49,16.42,2.37,21.62,9.85,4.2,6,3.23,13.07,2.38,19.72-6,46.76-30.61,80.39-74.72,96.46-42.6,15.52-82.76,7.31-116.7-23.42-9.09-8.23-13.33-10-23.48-.6-34.05,31.62-74.7,40.14-117.94,23.41-43.07-16.67-66.88-50.36-73-96.12-2.5-18.67,4.92-29.88,19-29.46,15.54.46,19.11,11.37,20.08,24.32,2.29,30.6,18.17,52.07,46,63.58,28.06,11.59,54.28,6.18,77.55-13.17a61.9,61.9,0,0,0,8.16-8.54c17.34-21.24,16.79-25.61-4.54-41.48-17.77-13.22-34.45-27.6-46.17-46.74-11.28-18.43-8.3-31.08,10.67-42.41C1695.7,2089,1720.62,2087.57,1742,2087.11Z" transform="translate(-1080.56 -1192.4)"/><path class="cls-1" d="M1498.56,1907.91c-1.2,56.11-45.9,99.44-101.44,98.35-55.09-1.08-98.33-46.66-97.36-102.63.95-54.51,47.59-98.13,103.33-96.62C1456.43,1808.47,1499.71,1854.2,1498.56,1907.91Z" transform="translate(-1080.56 -1192.4)"/><path class="cls-1" d="M2190.67,1908.4c-1,54.88-45.7,98.55-100.26,98-54.28-.54-99.35-46.05-98.89-99.85A100,100,0,0,1,2093.92,1807C2148.1,1807.91,2191.69,1853.61,2190.67,1908.4Z" transform="translate(-1080.56 -1192.4)"/></svg>